<?xml version="1.0" encoding="UTF-8"?>
<svg xmlns="http://www.w3.org/2000/svg" xmlns:xlink="http://www.w3.org/1999/xlink" viewBox="0 0 133.42 157.7">
  <defs>
    <style>
      .cls-1 {
        fill: url(#radial-gradient-2);
      }

      .cls-1, .cls-2 {
        mix-blend-mode: color-dodge;
      }

      .cls-3 {
        fill: url(#linear-gradient);
      }

      .cls-4 {
        filter: url(#luminosity-noclip-3);
      }

      .cls-5 {
        filter: url(#luminosity-noclip-5);
      }

      .cls-6 {
        isolation: isolate;
      }

      .cls-6, .cls-7, .cls-8, .cls-9, .cls-10, .cls-11, .cls-12, .cls-13, .cls-14 {
        fill: none;
      }

      .cls-15 {
        filter: url(#luminosity-noclip);
      }

      .cls-16 {
        fill: #ebdef3;
      }

      .cls-17 {
        fill: #9f19ab;
      }

      .cls-18 {
        fill: #741bbd;
      }

      .cls-19 {
        fill: #33076b;
      }

      .cls-20 {
        fill: #25054d;
      }

      .cls-21 {
        fill: #413ece;
      }

      .cls-22 {
        fill: #9819ab;
      }

      .cls-23 {
        fill: #6513a8;
      }

      .cls-24 {
        fill: #352785;
      }

      .cls-25 {
        fill: #8419ab;
      }

      .cls-7 {
        mask: url(#mask-2);
      }

      .cls-8 {
        mask: url(#mask-3);
      }

      .cls-9 {
        mask: url(#mask-6);
      }

      .cls-10 {
        mask: url(#mask-4);
      }

      .cls-11 {
        mask: url(#mask-5);
      }

      .cls-12 {
        mask: url(#mask-1);
      }

      .cls-26 {
        fill: url(#linear-gradient-4);
      }

      .cls-26, .cls-27, .cls-28, .cls-29 {
        mix-blend-mode: multiply;
      }

      .cls-27 {
        fill: url(#linear-gradient-2);
      }

      .cls-28 {
        fill: url(#linear-gradient-3);
      }

      .cls-29 {
        fill: #b086cc;
        opacity: .6;
      }

      .cls-13 {
        mask: url(#mask);
      }

      .cls-30 {
        fill: url(#_Безымянный_градиент_8-9);
      }

      .cls-31 {
        fill: url(#_Безымянный_градиент_8-4);
      }

      .cls-32 {
        fill: url(#_Безымянный_градиент_8-3);
      }

      .cls-33 {
        fill: url(#_Безымянный_градиент_8-2);
      }

      .cls-34 {
        fill: url(#_Безымянный_градиент_8-7);
      }

      .cls-35 {
        fill: url(#_Безымянный_градиент_8-5);
      }

      .cls-36 {
        fill: url(#_Безымянный_градиент_8-6);
      }

      .cls-37 {
        fill: url(#_Безымянный_градиент_8-8);
      }

      .cls-2 {
        fill: url(#radial-gradient);
      }

      .cls-38 {
        fill: url(#_Безымянный_градиент_8-16);
      }

      .cls-39 {
        fill: url(#_Безымянный_градиент_8-17);
      }

      .cls-40 {
        fill: url(#_Безымянный_градиент_8-18);
      }

      .cls-41 {
        fill: url(#_Безымянный_градиент_8-10);
      }

      .cls-42 {
        fill: url(#_Безымянный_градиент_8-19);
      }

      .cls-43 {
        fill: url(#_Безымянный_градиент_8-11);
      }

      .cls-44 {
        fill: url(#_Безымянный_градиент_8-12);
      }

      .cls-45 {
        fill: url(#_Безымянный_градиент_8-13);
      }

      .cls-46 {
        fill: url(#_Безымянный_градиент_8-14);
      }

      .cls-47 {
        fill: url(#_Безымянный_градиент_8-15);
      }

      .cls-48 {
        fill: url(#_Безымянный_градиент_8-41);
      }

      .cls-49 {
        fill: url(#_Безымянный_градиент_8-40);
      }

      .cls-50 {
        fill: url(#_Безымянный_градиент_8-44);
      }

      .cls-51 {
        fill: url(#_Безымянный_градиент_8-49);
      }

      .cls-52 {
        fill: url(#_Безымянный_градиент_8-46);
      }

      .cls-53 {
        fill: url(#_Безымянный_градиент_8-42);
      }

      .cls-54 {
        fill: url(#_Безымянный_градиент_8-45);
      }

      .cls-55 {
        fill: url(#_Безымянный_градиент_8-47);
      }

      .cls-56 {
        fill: url(#_Безымянный_градиент_8-43);
      }

      .cls-57 {
        fill: url(#_Безымянный_градиент_8-48);
      }

      .cls-58 {
        fill: url(#_Безымянный_градиент_8-55);
      }

      .cls-59 {
        fill: url(#_Безымянный_градиент_8-51);
      }

      .cls-60 {
        fill: url(#_Безымянный_градиент_8-58);
      }

      .cls-61 {
        fill: url(#_Безымянный_градиент_8-57);
      }

      .cls-62 {
        fill: url(#_Безымянный_градиент_8-50);
      }

      .cls-63 {
        fill: url(#_Безымянный_градиент_8-52);
      }

      .cls-64 {
        fill: url(#_Безымянный_градиент_8-53);
      }

      .cls-65 {
        fill: url(#_Безымянный_градиент_8-54);
      }

      .cls-66 {
        fill: url(#_Безымянный_градиент_8-60);
      }

      .cls-67 {
        fill: url(#_Безымянный_градиент_8-25);
      }

      .cls-68 {
        fill: url(#_Безымянный_градиент_8-24);
      }

      .cls-69 {
        fill: url(#_Безымянный_градиент_8-56);
      }

      .cls-70 {
        fill: url(#_Безымянный_градиент_8-59);
      }

      .cls-71 {
        fill: url(#_Безымянный_градиент_8-29);
      }

      .cls-72 {
        fill: url(#_Безымянный_градиент_8-28);
      }

      .cls-73 {
        fill: url(#_Безымянный_градиент_8-21);
      }

      .cls-74 {
        fill: url(#_Безымянный_градиент_8-20);
      }

      .cls-75 {
        fill: url(#_Безымянный_градиент_8-23);
      }

      .cls-76 {
        fill: url(#_Безымянный_градиент_8-22);
      }

      .cls-77 {
        fill: url(#_Безымянный_градиент_8-27);
      }

      .cls-78 {
        fill: url(#_Безымянный_градиент_8-26);
      }

      .cls-79 {
        fill: url(#_Безымянный_градиент_8-39);
      }

      .cls-80 {
        fill: url(#_Безымянный_градиент_8-38);
      }

      .cls-81 {
        fill: url(#_Безымянный_градиент_8-36);
      }

      .cls-82 {
        fill: url(#_Безымянный_градиент_8-31);
      }

      .cls-83 {
        fill: url(#_Безымянный_градиент_8-30);
      }

      .cls-84 {
        fill: url(#_Безымянный_градиент_8-32);
      }

      .cls-85 {
        fill: url(#_Безымянный_градиент_8-37);
      }

      .cls-86 {
        fill: url(#_Безымянный_градиент_8-35);
      }

      .cls-87 {
        fill: url(#_Безымянный_градиент_8-33);
      }

      .cls-88 {
        fill: url(#_Безымянный_градиент_8-34);
      }

      .cls-89 {
        fill: url(#_Безымянный_градиент_8);
      }

      .cls-14 {
        mix-blend-mode: screen;
      }
    </style>
    <linearGradient id="linear-gradient" x1="55.03" y1="44.81" x2="93.38" y2="110.58" gradientUnits="userSpaceOnUse">
      <stop offset=".56" stop-color="#fff"/>
      <stop offset=".61" stop-color="#f4f4f4"/>
      <stop offset=".69" stop-color="#d8d8d8"/>
      <stop offset=".8" stop-color="#aaaaab"/>
      <stop offset=".92" stop-color="#6c6b6d"/>
      <stop offset="1" stop-color="#414042"/>
    </linearGradient>
    <mask id="mask" x="-5.9" y="-5.69" width="155.25" height="158.25" maskUnits="userSpaceOnUse">
      <rect class="cls-3" x="-5.9" y="-5.69" width="155.25" height="158.25"/>
    </mask>
    <radialGradient id="radial-gradient" cx="41.8" cy="54.99" fx="41.8" fy="54.99" r="64.96" gradientUnits="userSpaceOnUse">
      <stop offset="0" stop-color="#fff"/>
      <stop offset="1" stop-color="#000"/>
    </radialGradient>
    <linearGradient id="_Безымянный_градиент_8" data-name="Безымянный градиент 8" x1="13.79" y1="60.27" x2="81.17" y2="60.27" gradientTransform="translate(36.53 -15.67) rotate(30.02)" gradientUnits="userSpaceOnUse">
      <stop offset="0" stop-color="#8ce2fe"/>
      <stop offset="1" stop-color="#8ce2fe"/>
    </linearGradient>
    <linearGradient id="_Безымянный_градиент_8-2" data-name="Безымянный градиент 8" x1="13.79" y1="72.97" x2="66.92" y2="72.97" gradientTransform="translate(41.7 -10.41) rotate(29.87)" xlink:href="#_Безымянный_градиент_8"/>
    <linearGradient id="_Безымянный_градиент_8-3" data-name="Безымянный градиент 8" y1="96.19" x2="50.4" y2="96.19" gradientTransform="translate(52.44 -3.15) rotate(30.02)" xlink:href="#_Безымянный_градиент_8"/>
    <linearGradient id="_Безымянный_градиент_8-4" data-name="Безымянный градиент 8" y1="107.97" x2="36.19" y2="107.97" gradientTransform="translate(57.37 1.98) rotate(30.02)" xlink:href="#_Безымянный_градиент_8"/>
    <linearGradient id="_Безымянный_градиент_8-5" data-name="Безымянный градиент 8" y1="126.52" x2="21.34" y2="126.52" gradientTransform="translate(65.66 8.19) rotate(30.02)" xlink:href="#_Безымянный_градиент_8"/>
    <linearGradient id="_Безымянный_градиент_8-6" data-name="Безымянный градиент 8" x1="114" y1="93.58" x2="115.37" y2="93.58" gradientTransform="translate(136.74 -52.79) rotate(59.35)" xlink:href="#_Безымянный_градиент_8"/>
    <linearGradient id="_Безымянный_градиент_8-7" data-name="Безымянный градиент 8" x1="117.78" y1="96.14" x2="120.23" y2="96.14" gradientTransform="translate(141.01 -55.26) rotate(59.34)" xlink:href="#_Безымянный_градиент_8"/>
    <linearGradient id="_Безымянный_градиент_8-8" data-name="Безымянный градиент 8" x1="122.64" y1="98.7" x2="124.01" y2="98.7" gradientTransform="translate(145.37 -57.71) rotate(59.35)" xlink:href="#_Безымянный_градиент_8"/>
    <linearGradient id="_Безымянный_градиент_8-9" data-name="Безымянный градиент 8" x1="98.62" y1="102.41" x2="99.99" y2="102.41" gradientTransform="translate(136.8 -35.23) rotate(59.35)" xlink:href="#_Безымянный_градиент_8"/>
    <linearGradient id="_Безымянный_градиент_8-10" data-name="Безымянный градиент 8" x1="102.4" y1="104.97" x2="104.86" y2="104.97" gradientTransform="translate(141.08 -37.7) rotate(59.34)" xlink:href="#_Безымянный_градиент_8"/>
    <linearGradient id="_Безымянный_градиент_8-11" data-name="Безымянный градиент 8" x1="107.27" y1="107.54" x2="108.64" y2="107.54" gradientTransform="translate(145.43 -40.15) rotate(59.35)" xlink:href="#_Безымянный_градиент_8"/>
    <linearGradient id="_Безымянный_градиент_8-12" data-name="Безымянный градиент 8" x1="83.25" y1="111.25" x2="84.62" y2="111.25" gradientTransform="translate(136.86 -17.67) rotate(59.35)" xlink:href="#_Безымянный_градиент_8"/>
    <linearGradient id="_Безымянный_градиент_8-13" data-name="Безымянный градиент 8" x1="87.03" y1="113.81" x2="89.48" y2="113.81" gradientTransform="translate(141.14 -20.15) rotate(59.34)" xlink:href="#_Безымянный_градиент_8"/>
    <linearGradient id="_Безымянный_градиент_8-14" data-name="Безымянный градиент 8" x1="91.89" y1="116.37" x2="93.26" y2="116.37" gradientTransform="translate(145.49 -22.6) rotate(59.35)" xlink:href="#_Безымянный_градиент_8"/>
    <linearGradient id="_Безымянный_градиент_8-15" data-name="Безымянный градиент 8" x1="67.87" y1="120.08" x2="69.24" y2="120.08" gradientTransform="translate(136.92 -.11) rotate(59.35)" xlink:href="#_Безымянный_градиент_8"/>
    <linearGradient id="_Безымянный_градиент_8-16" data-name="Безымянный градиент 8" x1="71.65" y1="122.64" x2="74.11" y2="122.64" gradientTransform="translate(141.21 -2.59) rotate(59.34)" xlink:href="#_Безымянный_градиент_8"/>
    <linearGradient id="_Безымянный_градиент_8-17" data-name="Безымянный градиент 8" x1="76.52" y1="125.2" x2="77.89" y2="125.2" gradientTransform="translate(145.55 -5.04) rotate(59.35)" xlink:href="#_Безымянный_градиент_8"/>
    <linearGradient id="_Безымянный_градиент_8-18" data-name="Безымянный градиент 8" x1="52.5" y1="128.91" x2="53.87" y2="128.91" gradientTransform="translate(136.98 17.45) rotate(59.35)" xlink:href="#_Безымянный_градиент_8"/>
    <linearGradient id="_Безымянный_градиент_8-19" data-name="Безымянный градиент 8" x1="56.28" y1="131.47" x2="58.73" y2="131.47" gradientTransform="translate(141.27 14.96) rotate(59.34)" xlink:href="#_Безымянный_градиент_8"/>
    <linearGradient id="_Безымянный_градиент_8-20" data-name="Безымянный градиент 8" x1="61.14" y1="134.04" x2="62.51" y2="134.04" gradientTransform="translate(145.62 12.52) rotate(59.35)" xlink:href="#_Безымянный_градиент_8"/>
    <linearGradient id="_Безымянный_градиент_8-21" data-name="Безымянный градиент 8" x1="37.12" y1="137.75" x2="38.49" y2="137.75" gradientTransform="translate(137.04 35.01) rotate(59.35)" xlink:href="#_Безымянный_градиент_8"/>
    <linearGradient id="_Безымянный_градиент_8-22" data-name="Безымянный градиент 8" x1="40.9" y1="140.31" x2="43.36" y2="140.31" gradientTransform="translate(141.34 32.51) rotate(59.34)" xlink:href="#_Безымянный_градиент_8"/>
    <linearGradient id="_Безымянный_градиент_8-23" data-name="Безымянный градиент 8" x1="45.77" y1="142.87" x2="47.14" y2="142.87" gradientTransform="translate(145.68 30.07) rotate(59.35)" xlink:href="#_Безымянный_градиент_8"/>
    <linearGradient id="_Безымянный_градиент_8-24" data-name="Безымянный градиент 8" x1="21.75" y1="146.58" x2="23.12" y2="146.58" gradientTransform="translate(137.11 52.56) rotate(59.35)" xlink:href="#_Безымянный_градиент_8"/>
    <linearGradient id="_Безымянный_градиент_8-25" data-name="Безымянный градиент 8" x1="25.53" y1="149.14" x2="27.98" y2="149.14" gradientTransform="translate(141.4 50.07) rotate(59.34)" xlink:href="#_Безымянный_градиент_8"/>
    <linearGradient id="_Безымянный_градиент_8-26" data-name="Безымянный градиент 8" x1="30.39" y1="151.7" x2="31.76" y2="151.7" gradientTransform="translate(145.74 47.63) rotate(59.35)" xlink:href="#_Безымянный_градиент_8"/>
    <linearGradient id="_Безымянный_градиент_8-27" data-name="Безымянный градиент 8" x1="123.83" y1="100.37" x2="130.62" y2="100.37" gradientTransform="matrix(1,0,0,1,0,0)" xlink:href="#_Безымянный_градиент_8"/>
    <linearGradient id="_Безымянный_градиент_8-28" data-name="Безымянный градиент 8" x1="127.81" y1="102.96" x2="133.42" y2="102.96" gradientTransform="matrix(1,0,0,1,0,0)" xlink:href="#_Безымянный_градиент_8"/>
    <linearGradient id="_Безымянный_градиент_8-29" data-name="Безымянный градиент 8" x1="108.86" y1="109.84" x2="114.99" y2="109.84" gradientTransform="matrix(1,0,0,1,0,0)" xlink:href="#_Безымянный_градиент_8"/>
    <linearGradient id="_Безымянный_градиент_8-30" data-name="Безымянный градиент 8" x1="112.48" y1="111.81" x2="118.09" y2="111.81" gradientTransform="matrix(1,0,0,1,0,0)" xlink:href="#_Безымянный_градиент_8"/>
    <linearGradient id="_Безымянный_градиент_8-31" data-name="Безымянный градиент 8" x1="92.93" y1="118.43" x2="99.61" y2="118.43" gradientTransform="matrix(1,0,0,1,0,0)" xlink:href="#_Безымянный_градиент_8"/>
    <linearGradient id="_Безымянный_градиент_8-32" data-name="Безымянный градиент 8" x1="97.15" y1="120.66" x2="102.76" y2="120.66" gradientTransform="matrix(1,0,0,1,0,0)" xlink:href="#_Безымянный_градиент_8"/>
    <linearGradient id="_Безымянный_градиент_8-33" data-name="Безымянный градиент 8" x1="78.14" y1="127.82" x2="84.21" y2="127.82" gradientTransform="matrix(1,0,0,1,0,0)" xlink:href="#_Безымянный_градиент_8"/>
    <linearGradient id="_Безымянный_градиент_8-34" data-name="Безымянный градиент 8" x1="81.82" y1="129.51" x2="87.43" y2="129.51" gradientTransform="matrix(1,0,0,1,0,0)" xlink:href="#_Безымянный_градиент_8"/>
    <linearGradient id="_Безымянный_градиент_8-35" data-name="Безымянный градиент 8" x1="62.18" y1="136.17" x2="68.56" y2="136.17" gradientTransform="matrix(1,0,0,1,0,0)" xlink:href="#_Безымянный_градиент_8"/>
    <linearGradient id="_Безымянный_градиент_8-36" data-name="Безымянный градиент 8" x1="66.49" y1="138.37" x2="72.1" y2="138.37" gradientTransform="matrix(1,0,0,1,0,0)" xlink:href="#_Безымянный_градиент_8"/>
    <linearGradient id="_Безымянный_градиент_8-37" data-name="Безымянный градиент 8" x1="46.69" y1="145.27" x2="53.21" y2="145.27" gradientTransform="matrix(1,0,0,1,0,0)" xlink:href="#_Безымянный_градиент_8"/>
    <linearGradient id="_Безымянный_градиент_8-38" data-name="Безымянный градиент 8" x1="51.16" y1="147.21" x2="56.77" y2="147.21" gradientTransform="matrix(1,0,0,1,0,0)" xlink:href="#_Безымянный_градиент_8"/>
    <linearGradient id="_Безымянный_градиент_8-39" data-name="Безымянный градиент 8" x1="32.72" y1="154.06" x2="37.75" y2="154.06" gradientTransform="matrix(1,0,0,1,0,0)" xlink:href="#_Безымянный_градиент_8"/>
    <linearGradient id="_Безымянный_градиент_8-40" data-name="Безымянный градиент 8" x1="35.83" y1="156.06" x2="41.44" y2="156.06" gradientTransform="matrix(1,0,0,1,0,0)" xlink:href="#_Безымянный_градиент_8"/>
    <filter id="luminosity-noclip" x="13.15" y="41.25" width="107.94" height="106.6" color-interpolation-filters="sRGB" filterUnits="userSpaceOnUse">
      <feFlood flood-color="#fff" result="bg"/>
      <feBlend in="SourceGraphic" in2="bg"/>
    </filter>
    <filter id="luminosity-noclip-2" x="13.15" y="-7672.64" width="107.94" height="32766" color-interpolation-filters="sRGB" filterUnits="userSpaceOnUse">
      <feFlood flood-color="#fff" result="bg"/>
      <feBlend in="SourceGraphic" in2="bg"/>
    </filter>
    <mask id="mask-2" x="13.15" y="-7672.64" width="107.94" height="32766" maskUnits="userSpaceOnUse"/>
    <linearGradient id="linear-gradient-2" x1="72.27" y1="120.2" x2="20.94" y2="26.2" gradientUnits="userSpaceOnUse">
      <stop offset="0" stop-color="#666"/>
      <stop offset="1" stop-color="#fff"/>
    </linearGradient>
    <mask id="mask-1" x="13.15" y="41.25" width="107.94" height="106.6" maskUnits="userSpaceOnUse">
      <g class="cls-15">
        <g class="cls-7">
          <path class="cls-27" d="m121.09,82.14v-7.47l-9.04-8.68-14.62-3.25-15.62-21.5-15.25,17-15.12,26.9-15.12,16.08-23.15,35.12v9.57c0,.96.29,1.93.94,1.93.23,0,.51-.09.82-.27l103.17-59.57c1.63-.94,3.01-3.63,3.01-5.87Z"/>
        </g>
      </g>
    </mask>
    <filter id="luminosity-noclip-3" x="82.98" y="43.14" width="38.15" height="32.19" color-interpolation-filters="sRGB" filterUnits="userSpaceOnUse">
      <feFlood flood-color="#fff" result="bg"/>
      <feBlend in="SourceGraphic" in2="bg"/>
    </filter>
    <filter id="luminosity-noclip-4" x="82.98" y="-7672.64" width="38.15" height="32766" color-interpolation-filters="sRGB" filterUnits="userSpaceOnUse">
      <feFlood flood-color="#fff" result="bg"/>
      <feBlend in="SourceGraphic" in2="bg"/>
    </filter>
    <mask id="mask-4" x="82.98" y="-7672.64" width="38.15" height="32766" maskUnits="userSpaceOnUse"/>
    <linearGradient id="linear-gradient-3" x1="91.74" y1="102.78" x2="103.36" y2="53.79" xlink:href="#linear-gradient-2"/>
    <mask id="mask-3" x="82.98" y="43.14" width="38.15" height="32.19" maskUnits="userSpaceOnUse">
      <g class="cls-4">
        <g class="cls-10">
          <polygon class="cls-28" points="121.01 75.33 111.8 66.46 97.13 63.2 82.98 43.73 83.79 43.14 97.71 62.3 112.29 65.54 121.13 74.08 121.01 75.33"/>
        </g>
      </g>
    </mask>
    <filter id="luminosity-noclip-5" x="13.15" y="41.31" width="68.61" height="106.54" color-interpolation-filters="sRGB" filterUnits="userSpaceOnUse">
      <feFlood flood-color="#fff" result="bg"/>
      <feBlend in="SourceGraphic" in2="bg"/>
    </filter>
    <filter id="luminosity-noclip-6" x="13.15" y="-7672.64" width="68.61" height="32766" color-interpolation-filters="sRGB" filterUnits="userSpaceOnUse">
      <feFlood flood-color="#fff" result="bg"/>
      <feBlend in="SourceGraphic" in2="bg"/>
    </filter>
    <mask id="mask-6" x="13.15" y="-7672.64" width="68.61" height="32766" maskUnits="userSpaceOnUse"/>
    <linearGradient id="linear-gradient-4" x1="69.97" y1="143.65" x2="28.18" y2="51.55" gradientUnits="userSpaceOnUse">
      <stop offset="0" stop-color="#000"/>
      <stop offset="1" stop-color="#fff"/>
    </linearGradient>
    <mask id="mask-5" x="13.15" y="41.31" width="68.61" height="106.54" maskUnits="userSpaceOnUse">
      <g class="cls-5">
        <g class="cls-9">
          <path class="cls-26" d="m81.76,41.31l-15.21,16.94-15.12,26.9-15.12,16.08-23.15,35.12v9.57c0,.96.29,1.93.94,1.93.23,0,.51-.09.82-.27l66.85-38.6V41.31Z"/>
        </g>
      </g>
    </mask>
    <linearGradient id="_Безымянный_градиент_8-41" data-name="Безымянный градиент 8" x1="69.97" y1="143.65" x2="28.18" y2="51.55" gradientTransform="matrix(1,0,0,1,0,0)" xlink:href="#_Безымянный_градиент_8"/>
    <radialGradient id="radial-gradient-2" cx="67.24" cy="44.13" fx="67.24" fy="44.13" r="95.4" xlink:href="#radial-gradient"/>
    <linearGradient id="_Безымянный_градиент_8-42" data-name="Безымянный градиент 8" x1="81.11" y1="69.25" x2="81.84" y2="69.25" gradientTransform="matrix(1,0,0,1,0,0)" xlink:href="#_Безымянный_градиент_8"/>
    <linearGradient id="_Безымянный_градиент_8-43" data-name="Безымянный градиент 8" x1="81.05" y1="34.57" x2="81.71" y2="34.57" gradientTransform="matrix(1,0,0,1,0,0)" xlink:href="#_Безымянный_градиент_8"/>
    <linearGradient id="_Безымянный_градиент_8-44" data-name="Безымянный градиент 8" x1="72.37" y1="30.28" x2="84.15" y2="44.49" gradientTransform="matrix(1,0,0,1,0,0)" xlink:href="#_Безымянный_градиент_8"/>
    <linearGradient id="_Безымянный_градиент_8-45" data-name="Безымянный градиент 8" x1=".14" y1="84.48" x2="3.1" y2="84.48" gradientTransform="matrix(1,0,0,1,0,0)" xlink:href="#_Безымянный_градиент_8"/>
    <linearGradient id="_Безымянный_градиент_8-46" data-name="Безымянный градиент 8" x1="3.78" y1="82.15" x2="6.74" y2="82.15" gradientTransform="matrix(1,0,0,1,0,0)" xlink:href="#_Безымянный_градиент_8"/>
    <linearGradient id="_Безымянный_градиент_8-47" data-name="Безымянный градиент 8" x1=".15" y1="92.81" x2="3.1" y2="92.81" gradientTransform="matrix(1,0,0,1,0,0)" xlink:href="#_Безымянный_градиент_8"/>
    <linearGradient id="_Безымянный_градиент_8-48" data-name="Безымянный градиент 8" x1="3.78" y1="90.69" x2="6.74" y2="90.69" gradientTransform="matrix(1,0,0,1,0,0)" xlink:href="#_Безымянный_градиент_8"/>
    <linearGradient id="_Безымянный_градиент_8-49" data-name="Безымянный градиент 8" x1=".23" y1="110.94" x2="3.06" y2="110.94" gradientTransform="matrix(1,0,0,1,0,0)" xlink:href="#_Безымянный_градиент_8"/>
    <linearGradient id="_Безымянный_градиент_8-50" data-name="Безымянный градиент 8" x1="3.78" y1="108.86" x2="6.74" y2="108.86" gradientTransform="matrix(1,0,0,1,0,0)" xlink:href="#_Безымянный_градиент_8"/>
    <linearGradient id="_Безымянный_градиент_8-51" data-name="Безымянный градиент 8" x1="0" y1="119.11" x2="3.26" y2="119.11" gradientTransform="matrix(1,0,0,1,0,0)" xlink:href="#_Безымянный_градиент_8"/>
    <linearGradient id="_Безымянный_градиент_8-52" data-name="Безымянный градиент 8" x1="3.78" y1="117.39" x2="6.74" y2="117.39" gradientTransform="matrix(1,0,0,1,0,0)" xlink:href="#_Безымянный_градиент_8"/>
    <linearGradient id="_Безымянный_градиент_8-53" data-name="Безымянный градиент 8" x1=".15" y1="133.4" x2="3.1" y2="133.4" gradientTransform="matrix(1,0,0,1,0,0)" xlink:href="#_Безымянный_градиент_8"/>
    <linearGradient id="_Безымянный_градиент_8-54" data-name="Безымянный градиент 8" x1="3.78" y1="131.02" x2="6.74" y2="131.02" gradientTransform="matrix(1,0,0,1,0,0)" xlink:href="#_Безымянный_градиент_8"/>
    <linearGradient id="_Безымянный_градиент_8-55" data-name="Безымянный градиент 8" x1="64.65" y1="58.37" x2="68.44" y2="58.37" gradientTransform="matrix(1,0,0,1,0,0)" xlink:href="#_Безымянный_градиент_8"/>
    <linearGradient id="_Безымянный_градиент_8-56" data-name="Безымянный градиент 8" x1="95.65" y1="62.62" x2="99.44" y2="62.62" gradientTransform="matrix(1,0,0,1,0,0)" xlink:href="#_Безымянный_градиент_8"/>
    <linearGradient id="_Безымянный_градиент_8-57" data-name="Безымянный градиент 8" x1="110.65" y1="66.5" x2="114.44" y2="66.5" gradientTransform="matrix(1,0,0,1,0,0)" xlink:href="#_Безымянный_градиент_8"/>
    <linearGradient id="_Безымянный_градиент_8-58" data-name="Безымянный градиент 8" x1="49.4" y1="85.37" x2="53.19" y2="85.37" gradientTransform="matrix(1,0,0,1,0,0)" xlink:href="#_Безымянный_градиент_8"/>
    <linearGradient id="_Безымянный_градиент_8-59" data-name="Безымянный градиент 8" x1="34.28" y1="101.5" x2="38.06" y2="101.5" gradientTransform="matrix(1,0,0,1,0,0)" xlink:href="#_Безымянный_градиент_8"/>
    <linearGradient id="_Безымянный_градиент_8-60" data-name="Безымянный градиент 8" x1="18.78" y1="124.5" x2="22.56" y2="124.5" gradientTransform="matrix(1,0,0,1,0,0)" xlink:href="#_Безымянный_градиент_8"/>
  </defs>
  <g class="cls-6">
    <g id="_Слой_2" data-name="Слой 2">
      <g id="_лой_1" data-name="—лой_1">
        <g>
          <polygon class="cls-29" points="12.95 136.24 12.92 135 35.31 100.5 50.41 84.43 65.55 57.54 78.68 42.91 79.42 43.57 66.34 58.16 51.18 85.12 51.06 85.2 36.04 101.22 12.95 136.24"/>
          <g class="cls-13">
            <g>
              <path class="cls-2" d="m10.96,144.81v-77.51c0-2.68,1.63-5.8,3.65-6.97L117.77.77c.55-.32,1.07-.44,1.54-.42-.66-.47-1.55-.48-2.54.09L13.6,60c-2.01,1.16-3.65,4.28-3.65,6.97v77.51c0,1.95.87,3.12,2.11,3.18-.68-.49-1.11-1.47-1.11-2.84Z"/>
              <g class="cls-14">
                <path class="cls-19" d="m14.09,149.61h0c-1.61,0-2.7-1.48-2.7-3.69v-77.51c0-2.89,1.71-6.14,3.9-7.4L118.45,1.45c.58-.34,1.15-.5,1.7-.5,1.61,0,2.7,1.48,2.7,3.69v77.51c0,2.89-1.71,6.14-3.9,7.4L15.78,149.11c-.58.34-1.15.5-1.7.5ZM120.15,1.94c-.37,0-.77.12-1.2.37L15.78,61.88c-1.87,1.08-3.4,4.01-3.4,6.53v77.51c0,1.64.67,2.69,1.7,2.69h0c.37,0,.77-.12,1.2-.37l103.17-59.57c1.87-1.08,3.4-4.01,3.4-6.53V4.64c0-1.64-.67-2.69-1.7-2.69Z"/>
              </g>
              <path class="cls-21" d="m14.09,147.85c.23,0,.51-.09.82-.27l103.17-59.57c1.63-.94,3.01-3.63,3.01-5.87V4.64c0-.96-.29-1.93-.94-1.93-.23,0-.51.09-.82.27L16.16,62.54c-1.63.94-3.01,3.63-3.01,5.87v77.51c0,.96.29,1.93.94,1.93Z"/>
              <rect class="cls-89" x="8.85" y="59.77" width="77.27" height="1" transform="translate(-23.79 31.84) rotate(-30.02)"/>
              <rect class="cls-33" x="10.02" y="72.47" width="60.68" height="1" transform="translate(-30.98 29.79) rotate(-29.87)"/>
              <rect class="cls-32" x="11.24" y="95.69" width="41.72" height="1" transform="translate(-43.82 28.97) rotate(-30.02)"/>
              <rect class="cls-31" x="12.34" y="107.47" width="25.3" height="1" transform="translate(-50.67 26.99) rotate(-30.02)"/>
              <rect class="cls-35" x="13.49" y="126.02" width="8.15" height="1" transform="translate(-60.95 25.76) rotate(-30.02)"/>
            </g>
          </g>
          <g>
            <g>
              <rect class="cls-36" x="114.18" y="93.08" width="1" height="1" transform="translate(-24.28 144.55) rotate(-59.35)"/>
              <rect class="cls-34" x="118.5" y="95.01" width="1" height="2.26" transform="translate(-24.38 149.48) rotate(-59.34)"/>
              <rect class="cls-37" x="122.83" y="98.2" width="1" height="1" transform="translate(-24.46 154.48) rotate(-59.35)"/>
            </g>
            <g>
              <rect class="cls-30" x="98.81" y="101.91" width="1" height="1" transform="translate(-39.42 135.65) rotate(-59.35)"/>
              <rect class="cls-41" x="103.13" y="103.84" width="1" height="2.26" transform="translate(-39.52 140.58) rotate(-59.34)"/>
              <rect class="cls-43" x="107.45" y="107.04" width="1" height="1" transform="translate(-39.6 145.58) rotate(-59.35)"/>
            </g>
            <g>
              <rect class="cls-44" x="83.43" y="110.75" width="1" height="1" transform="translate(-54.56 126.75) rotate(-59.35)"/>
              <rect class="cls-45" x="87.75" y="112.68" width="1" height="2.26" transform="translate(-54.65 131.68) rotate(-59.34)"/>
              <rect class="cls-46" x="92.08" y="115.87" width="1" height="1" transform="translate(-54.73 136.69) rotate(-59.35)"/>
            </g>
            <g>
              <rect class="cls-47" x="68.06" y="119.58" width="1" height="1" transform="translate(-69.7 117.86) rotate(-59.35)"/>
              <rect class="cls-38" x="72.38" y="121.51" width="1" height="2.26" transform="translate(-69.78 122.79) rotate(-59.34)"/>
              <rect class="cls-39" x="76.7" y="124.7" width="1" height="1" transform="translate(-69.87 127.79) rotate(-59.35)"/>
            </g>
            <g>
              <rect class="cls-40" x="52.68" y="128.41" width="1" height="1" transform="translate(-84.83 108.96) rotate(-59.35)"/>
              <rect class="cls-42" x="57" y="130.34" width="1" height="2.26" transform="translate(-84.91 113.89) rotate(-59.34)"/>
              <rect class="cls-74" x="61.33" y="133.54" width="1" height="1" transform="translate(-85 118.89) rotate(-59.35)"/>
            </g>
            <g>
              <rect class="cls-73" x="37.31" y="137.25" width="1" height="1" transform="translate(-99.97 100.06) rotate(-59.35)"/>
              <rect class="cls-76" x="41.63" y="139.18" width="1" height="2.26" transform="translate(-100.05 104.99) rotate(-59.34)"/>
              <rect class="cls-75" x="45.95" y="142.37" width="1" height="1" transform="translate(-100.14 110) rotate(-59.35)"/>
            </g>
            <g>
              <rect class="cls-68" x="21.93" y="146.08" width="1" height="1" transform="translate(-115.11 91.16) rotate(-59.35)"/>
              <rect class="cls-67" x="26.25" y="148.01" width="1" height="2.26" transform="translate(-115.18 96.1) rotate(-59.34)"/>
              <rect class="cls-78" x="30.58" y="151.2" width="1" height="1" transform="translate(-115.28 101.1) rotate(-59.35)"/>
            </g>
          </g>
          <g>
            <path class="cls-77" d="m123.83,101.56l5.43-1.15-2.26-1.31.61-.35,3.01,1.74-.49.28-5.55,1.23-.76-.44Z"/>
            <path class="cls-72" d="m132.09,103.82c-.75.43-1.43.69-2.04.76-.61.07-1.16-.04-1.66-.33-.48-.28-.66-.6-.54-.96.13-.36.56-.75,1.28-1.17.77-.44,1.45-.7,2.05-.76.61-.07,1.16.04,1.66.33.49.28.66.6.54.97-.13.36-.56.76-1.29,1.18Zm-2.25-1.3c-.59.34-.95.62-1.08.84-.13.22-.06.4.21.56.27.15.59.19.97.12.38-.08.86-.28,1.44-.62.58-.33.94-.61,1.07-.84.13-.22.07-.41-.2-.56-.27-.16-.59-.2-.97-.12-.38.08-.86.28-1.45.62Z"/>
            <path class="cls-71" d="m109.86,109.06c1.69-.98,3.24-1.07,4.62-.26.22.12.39.24.5.35l-.58.34c-.11-.11-.26-.23-.46-.34-.47-.27-.94-.4-1.42-.39-.48,0-1.01.17-1.58.47l.04.02c.25-.04.51-.03.76.01.26.05.5.14.73.27.39.23.58.48.56.74-.02.27-.24.52-.65.76-.46.26-.94.4-1.46.4s-1-.12-1.44-.38c-.31-.18-.51-.38-.59-.6-.08-.22-.04-.45.12-.68.16-.24.44-.47.84-.7Zm.19,1.64c.24.14.5.2.79.19s.57-.1.85-.27c.25-.14.38-.29.4-.45.02-.15-.09-.3-.34-.44-.15-.09-.32-.15-.51-.18-.19-.04-.38-.04-.56-.02-.19.02-.34.07-.45.13-.28.16-.44.34-.48.54-.04.2.06.36.3.5Z"/>
            <path class="cls-83" d="m116.76,112.67c-.75.43-1.43.69-2.04.76-.61.07-1.16-.04-1.66-.33-.48-.28-.66-.6-.54-.96.13-.36.56-.75,1.28-1.17.76-.44,1.45-.7,2.05-.77.61-.07,1.16.04,1.66.33.49.28.67.6.54.97-.13.36-.56.76-1.29,1.18Zm-2.25-1.3c-.59.34-.95.62-1.08.84-.13.22-.06.4.21.56.27.15.59.19.97.12.38-.08.86-.28,1.44-.62.58-.34.94-.61,1.07-.84.14-.22.07-.41-.2-.56-.27-.15-.59-.19-.97-.12-.38.08-.86.29-1.45.62Z"/>
            <path class="cls-82" d="m96.86,118.26c.44.25.67.52.69.8.03.28-.16.54-.56.77-.46.27-.97.39-1.52.37-.55-.02-1.09-.18-1.63-.49-.49-.28-.79-.55-.91-.8l.63-.36c.07.14.18.29.34.44.16.15.33.28.51.38.32.18.63.28.93.29.31.01.59-.06.86-.21.52-.3.44-.64-.22-1.02-.09-.05-.22-.12-.37-.18-.16-.07-.3-.12-.42-.17l-.13-.29,2.28-1.12,2.26,1.31-.62.36-1.65-.95-1.17.56c.08.03.18.07.3.12.12.05.25.12.39.2Z"/>
            <path class="cls-84" d="m101.43,121.52c-.75.43-1.43.69-2.04.76-.61.07-1.16-.04-1.66-.33-.48-.28-.66-.6-.54-.96.13-.36.55-.75,1.28-1.17.76-.44,1.45-.7,2.05-.76.61-.07,1.16.04,1.66.33.49.28.66.6.54.96-.13.36-.56.76-1.29,1.18Zm-2.25-1.3c-.59.34-.95.62-1.08.83-.13.22-.06.4.21.56.27.16.59.19.97.12.38-.08.86-.28,1.44-.62.58-.34.94-.61,1.07-.84.14-.22.07-.41-.2-.56-.27-.15-.59-.19-.97-.12-.38.08-.86.29-1.45.63Z"/>
            <path class="cls-87" d="m81.4,129.07l-.59-.34-.94.54-.68-.39.94-.54-1.99-1.15.54-.31,4.85-.5.68.39-2.82,1.63.59.34-.58.33Zm-.69-1.07l1.09-.63c.39-.22.71-.4.98-.53h-.02c-.19.03-.43.07-.74.11l-2.64.28,1.34.77Z"/>
            <path class="cls-88" d="m86.1,130.37c-.75.43-1.43.69-2.04.76s-1.16-.04-1.66-.33c-.48-.28-.66-.6-.54-.96.13-.36.55-.75,1.28-1.17.76-.44,1.45-.7,2.05-.76.61-.07,1.16.04,1.66.33.49.28.66.6.54.96-.13.36-.56.76-1.29,1.18Zm-2.25-1.3c-.59.34-.95.62-1.08.83-.13.22-.06.4.21.56.27.16.59.19.97.12.38-.08.86-.28,1.44-.62.58-.34.94-.61,1.07-.84.14-.22.07-.41-.2-.56-.27-.15-.59-.19-.97-.12-.38.08-.86.29-1.45.63Z"/>
            <path class="cls-86" d="m68.14,136.35c-.27.16-.58.24-.93.26-.34.01-.69-.05-1.05-.18h-.02c.31.24.46.45.46.66,0,.2-.14.38-.43.55-.42.24-.89.34-1.41.3-.52-.04-1.06-.22-1.6-.53-.48-.28-.81-.56-.99-.84l.62-.36c.09.16.22.31.38.46.16.15.33.28.52.39.34.19.65.3.94.33.29.02.57-.04.83-.19.23-.13.31-.29.23-.45-.08-.17-.31-.37-.71-.6l-.38-.22.57-.33.38.22c.69.4,1.28.46,1.76.19.19-.11.27-.22.25-.35-.02-.13-.15-.26-.38-.4-.17-.09-.35-.17-.55-.24-.2-.06-.47-.11-.81-.16l.14-.48c.69.06,1.3.25,1.83.55.44.25.69.5.75.76.06.25-.08.47-.41.66Z"/>
            <path class="cls-81" d="m70.77,139.22c-.75.43-1.43.69-2.04.76-.61.07-1.16-.04-1.66-.33-.48-.28-.66-.6-.54-.96.13-.36.56-.75,1.28-1.17.76-.44,1.45-.7,2.05-.76.61-.07,1.16.04,1.66.33.49.28.66.6.54.97-.13.36-.56.76-1.29,1.18Zm-2.25-1.3c-.59.34-.95.62-1.08.83-.13.22-.06.4.21.56.27.16.59.19.97.12.38-.08.86-.28,1.44-.62.58-.34.94-.61,1.07-.84.13-.22.07-.41-.2-.56-.27-.16-.59-.19-.97-.12-.38.08-.86.28-1.45.63Z"/>
            <path class="cls-85" d="m49.64,147.22l-2.95-1.7.53-.3h2.25c.67,0,1.13-.01,1.38-.03.25-.02.46-.05.64-.09.17-.04.33-.11.47-.19.19-.11.29-.24.28-.37,0-.13-.11-.26-.32-.38-.17-.1-.36-.17-.58-.23-.22-.06-.51-.1-.87-.12l.08-.48c.45.02.83.08,1.14.16.31.08.6.2.86.35.4.23.62.48.66.74.04.26-.12.5-.48.7-.2.11-.42.2-.66.26-.25.06-.54.1-.87.12-.33.02-.83.03-1.48.02l-1.48-.02-.03.02,2.07,1.19-.61.35Z"/>
            <path class="cls-80" d="m55.44,148.07c-.75.43-1.43.69-2.04.76-.61.07-1.16-.04-1.66-.33-.48-.28-.66-.6-.54-.96.13-.36.55-.75,1.28-1.17.76-.44,1.45-.7,2.05-.76.61-.07,1.16.04,1.66.33.49.28.67.6.54.97-.13.36-.56.76-1.29,1.18Zm-2.25-1.3c-.59.34-.95.62-1.08.84-.13.22-.06.4.21.56.27.15.59.19.97.12.38-.08.86-.28,1.45-.62.58-.33.94-.61,1.07-.84.14-.22.07-.41-.2-.56-.27-.16-.59-.2-.97-.12-.38.08-.86.28-1.45.62Z"/>
            <path class="cls-79" d="m33.42,155.56l-.7-.4,2.79-1.61c.33-.19.61-.34.82-.44-.09,0-.2,0-.33,0-.12,0-.53-.03-1.21-.07l.09-.46,2.28.16.58.34-4.33,2.5Z"/>
            <path class="cls-49" d="m40.11,156.92c-.75.43-1.43.69-2.04.76-.61.07-1.16-.04-1.66-.33-.48-.28-.66-.6-.54-.96.13-.36.56-.75,1.28-1.17.77-.44,1.45-.7,2.05-.77.61-.07,1.16.04,1.66.33.49.28.67.6.54.97s-.56.76-1.29,1.18Zm-2.25-1.3c-.59.34-.95.62-1.08.84s-.06.4.21.56c.27.15.59.19.97.12.38-.08.86-.28,1.44-.62.58-.34.94-.61,1.07-.84.13-.22.07-.41-.2-.56-.27-.15-.59-.19-.97-.12-.38.08-.86.29-1.45.62Z"/>
          </g>
          <g class="cls-12">
            <path class="cls-24" d="m121.09,82.14v-7.47l-9.04-8.68-14.62-3.25-15.62-21.5-15.25,17-15.12,26.9-15.12,16.08-23.15,35.12v9.57c0,.96.29,1.93.94,1.93.23,0,.51-.09.82-.27l103.17-59.57c1.63-.94,3.01-3.63,3.01-5.87Z"/>
          </g>
          <g class="cls-8">
            <polygon class="cls-24" points="121.01 75.33 111.8 66.46 97.13 63.2 82.98 43.73 83.79 43.14 97.71 62.3 112.29 65.54 121.13 74.08 121.01 75.33"/>
          </g>
          <g class="cls-11">
            <path class="cls-48" d="m81.76,41.31l-15.21,16.94-15.12,26.9-15.12,16.08-23.15,35.12v9.57c0,.96.29,1.93.94,1.93.23,0,.51-.09.82-.27l66.85-38.6V41.31Z"/>
          </g>
          <g>
            <g class="cls-14">
              <path class="cls-20" d="m51.35,125.28c-.28,0-.5-.22-.5-.5v-2c0-.05,0-.11.02-.16-.02-.05-.02-.1-.02-.16v-2c0-.13.05-.25.14-.34-.08-.09-.14-.21-.14-.34v-2c0-.05,0-.11.02-.16-.02-.05-.02-.1-.02-.16v-2c0-.13.05-.25.14-.34-.08-.09-.14-.21-.14-.34v-2c0-.05,0-.11.02-.16-.02-.05-.02-.1-.02-.16v-2c0-.13.05-.25.14-.34-.08-.09-.14-.21-.14-.34v-2c0-.05,0-.11.02-.16-.02-.05-.02-.1-.02-.16v-2c0-.13.05-.25.14-.34-.08-.09-.14-.21-.14-.34v-2c0-.05,0-.11.02-.16-.02-.05-.02-.1-.02-.16v-2c0-.13.05-.25.14-.34-.08-.09-.14-.21-.14-.34v-2c0-.05,0-.11.02-.16-.02-.05-.02-.1-.02-.16v-2c0-.13.05-.25.14-.34-.08-.09-.14-.21-.14-.34v-2c0-.05,0-.11.02-.16-.02-.05-.02-.1-.02-.16v-2c0-.13.05-.25.14-.34-.08-.09-.14-.21-.14-.34v-2c0-.28.22-.5.5-.5s.5.22.5.5v2c0,.13-.05.25-.14.34.08.09.14.21.14.34v2c0,.05,0,.11-.02.16.02.05.02.1.02.16v2c0,.13-.05.25-.14.34.08.09.14.21.14.34v2c0,.05,0,.11-.02.16.02.05.02.1.02.16v2c0,.13-.05.25-.14.34.08.09.14.21.14.34v2c0,.05,0,.11-.02.16.02.05.02.1.02.16v2c0,.13-.05.25-.14.34.08.09.14.21.14.34v2c0,.05,0,.11-.02.16.02.05.02.1.02.16v2c0,.13-.05.25-.14.34.08.09.14.21.14.34v2c0,.05,0,.11-.02.16.02.05.02.1.02.16v2c0,.13-.05.25-.14.34.08.09.14.21.14.34v2c0,.05,0,.11-.02.16.02.05.02.1.02.16v2c0,.13-.05.25-.14.34.08.09.14.21.14.34v2c0,.05,0,.11-.02.16.02.05.02.1.02.16v2c0,.28-.22.5-.5.5Z"/>
            </g>
            <g class="cls-14">
              <path class="cls-20" d="m20.77,142.96c-.28,0-.5-.22-.5-.5v-2c0-.17.08-.31.21-.4-.12-.09-.21-.24-.21-.4v-2s0-.06,0-.1c0-.03,0-.06,0-.1v-2c0-.17.08-.31.21-.4-.12-.09-.21-.24-.21-.4v-2s0-.06,0-.1c0-.03,0-.06,0-.1v-2c0-.17.08-.31.21-.4-.12-.09-.21-.24-.21-.4v-2c0-.28.22-.5.5-.5s.5.22.5.5v2c0,.17-.08.31-.21.4.12.09.21.24.21.4v2s0,.06,0,.1c0,.03,0,.06,0,.1v2c0,.17-.08.31-.21.4.12.09.21.24.21.4v2s0,.06,0,.1c0,.03,0,.06,0,.1v2c0,.17-.08.31-.21.4.12.09.21.24.21.4v2c0,.28-.22.5-.5.5Z"/>
            </g>
            <g class="cls-14">
              <path class="cls-20" d="m36.52,133.3h-1v-2c0-.28.22-.5.5-.5s.5.22.5.5v2Zm-.5-2.65c-.28,0-.5-.22-.5-.5v-3.85c0-.28.22-.5.5-.5s.5.22.5.5v3.85c0,.28-.22.5-.5.5Zm0-5c-.28,0-.5-.22-.5-.5v-3.85c0-.28.22-.5.5-.5s.5.22.5.5v3.85c0,.28-.22.5-.5.5Zm0-5c-.28,0-.5-.22-.5-.5v-3.85c0-.28.22-.5.5-.5s.5.22.5.5v3.85c0,.28-.22.5-.5.5Zm0-5c-.28,0-.5-.22-.5-.5v-3.85c0-.28.22-.5.5-.5s.5.22.5.5v3.85c0,.28-.22.5-.5.5Zm0-5c-.28,0-.5-.22-.5-.5v-3.85c0-.28.22-.5.5-.5s.5.22.5.5v3.85c0,.28-.22.5-.5.5Zm0-5c-.28,0-.5-.22-.5-.5v-1.92h1v1.92c0,.28-.22.5-.5.5Z"/>
            </g>
            <g class="cls-14">
              <path class="cls-20" d="m66.59,116.61c-.28,0-.5-.22-.5-.5v-3.11c0-.28.22-.5.5-.5s.5.22.5.5v3.11c0,.28-.22.5-.5.5Zm0-5c-.28,0-.5-.22-.5-.5v-3.11c0-.28.22-.5.5-.5s.5.22.5.5v3.11c0,.28-.22.5-.5.5Zm0-5c-.28,0-.5-.22-.5-.5v-3.11c0-.28.22-.5.5-.5s.5.22.5.5v3.11c0,.28-.22.5-.5.5Zm0-5c-.28,0-.5-.22-.5-.5v-3.11c0-.28.22-.5.5-.5s.5.22.5.5v3.11c0,.28-.22.5-.5.5Zm0-5c-.28,0-.5-.22-.5-.5v-3.11c0-.28.22-.5.5-.5s.5.22.5.5v3.11c0,.28-.22.5-.5.5Zm0-5c-.28,0-.5-.22-.5-.5v-3.11c0-.28.22-.5.5-.5s.5.22.5.5v3.11c0,.28-.22.5-.5.5Zm0-5c-.28,0-.5-.22-.5-.5v-3.11c0-.28.22-.5.5-.5s.5.22.5.5v3.11c0,.28-.22.5-.5.5Zm0-5c-.28,0-.5-.22-.5-.5v-3.11c0-.28.22-.5.5-.5s.5.22.5.5v3.11c0,.28-.22.5-.5.5Zm0-5c-.28,0-.5-.22-.5-.5v-3.11c0-.28.22-.5.5-.5s.5.22.5.5v3.11c0,.28-.22.5-.5.5Zm0-5c-.28,0-.5-.22-.5-.5v-3.11c0-.28.22-.5.5-.5s.5.22.5.5v3.11c0,.28-.22.5-.5.5Zm0-5c-.28,0-.5-.22-.5-.5v-3.11c0-.28.22-.5.5-.5s.5.22.5.5v3.11c0,.28-.22.5-.5.5Z"/>
            </g>
            <g class="cls-14">
              <path class="cls-20" d="m82.33,107.28h-1v-2c0-.28.22-.5.5-.5s.5.22.5.5v2Zm-.5-2.94c-.28,0-.5-.22-.5-.5v-3.56c0-.28.22-.5.5-.5s.5.22.5.5v3.56c0,.28-.22.5-.5.5Zm0-5c-.28,0-.5-.22-.5-.5v-3.56c0-.28.22-.5.5-.5s.5.22.5.5v3.56c0,.28-.22.5-.5.5Zm0-5c-.28,0-.5-.22-.5-.5v-3.56c0-.28.22-.5.5-.5s.5.22.5.5v3.56c0,.28-.22.5-.5.5Zm0-5c-.28,0-.5-.22-.5-.5v-3.56c0-.28.22-.5.5-.5s.5.22.5.5v3.56c0,.28-.22.5-.5.5Zm0-5c-.28,0-.5-.22-.5-.5v-3.56c0-.28.22-.5.5-.5s.5.22.5.5v3.56c0,.28-.22.5-.5.5Zm0-5c-.28,0-.5-.22-.5-.5v-3.56c0-.28.22-.5.5-.5s.5.22.5.5v3.56c0,.28-.22.5-.5.5Zm0-5c-.28,0-.5-.22-.5-.5v-3.56c0-.28.22-.5.5-.5s.5.22.5.5v3.56c0,.28-.22.5-.5.5Zm0-5c-.28,0-.5-.22-.5-.5v-3.56c0-.28.22-.5.5-.5s.5.22.5.5v3.56c0,.28-.22.5-.5.5Zm0-5c-.28,0-.5-.22-.5-.5v-3.56c0-.28.22-.5.5-.5s.5.22.5.5v3.56c0,.28-.22.5-.5.5Zm0-5c-.28,0-.5-.22-.5-.5v-3.56c0-.28.22-.5.5-.5s.5.22.5.5v3.56c0,.28-.22.5-.5.5Zm0-5c-.28,0-.5-.22-.5-.5v-3.56c0-.28.22-.5.5-.5s.5.22.5.5v3.56c0,.28-.22.5-.5.5Zm0-5c-.28,0-.5-.22-.5-.5v-3.56c0-.28.22-.5.5-.5s.5.22.5.5v3.56c0,.28-.22.5-.5.5Zm0-5c-.28,0-.5-.22-.5-.5v-1.78h1v1.78c0,.28-.22.5-.5.5Z"/>
            </g>
            <g class="cls-14">
              <path class="cls-20" d="m97.07,98.57c-.28,0-.5-.22-.5-.5v-2.24c0-.28.22-.5.5-.5s.5.22.5.5v2.24c0,.28-.22.5-.5.5Zm0-5c-.28,0-.5-.22-.5-.5v-2.24c0-.28.22-.5.5-.5s.5.22.5.5v2.24c0,.28-.22.5-.5.5Zm0-5c-.28,0-.5-.22-.5-.5v-2.24c0-.28.22-.5.5-.5s.5.22.5.5v2.24c0,.28-.22.5-.5.5Zm0-5c-.28,0-.5-.22-.5-.5v-2.24c0-.28.22-.5.5-.5s.5.22.5.5v2.24c0,.28-.22.5-.5.5Zm0-5c-.28,0-.5-.22-.5-.5v-2.24c0-.28.22-.5.5-.5s.5.22.5.5v2.24c0,.28-.22.5-.5.5Zm0-5c-.28,0-.5-.22-.5-.5v-2.24c0-.28.22-.5.5-.5s.5.22.5.5v2.24c0,.28-.22.5-.5.5Zm0-5c-.28,0-.5-.22-.5-.5v-2.24c0-.28.22-.5.5-.5s.5.22.5.5v2.24c0,.28-.22.5-.5.5Z"/>
            </g>
            <g class="cls-14">
              <path class="cls-20" d="m112.81,89.41h-1v-2c0-.28.22-.5.5-.5s.5.22.5.5v2Zm-.5-2.91c-.28,0-.5-.22-.5-.5v-3.59c0-.28.22-.5.5-.5s.5.22.5.5v3.59c0,.28-.22.5-.5.5Zm0-5c-.28,0-.5-.22-.5-.5v-3.59c0-.28.22-.5.5-.5s.5.22.5.5v3.59c0,.28-.22.5-.5.5Zm0-5c-.28,0-.5-.22-.5-.5v-3.59c0-.28.22-.5.5-.5s.5.22.5.5v3.59c0,.28-.22.5-.5.5Zm0-5c-.28,0-.5-.22-.5-.5v-1.8h1v1.8c0,.28-.22.5-.5.5Z"/>
            </g>
          </g>
          <polygon class="cls-1" points="13.17 137.21 13.09 135.79 35.93 100.87 51.04 84.8 66.17 57.92 79.3 43.28 80.05 43.95 66.96 58.53 51.81 85.5 51.69 85.58 36.66 101.6 13.17 137.21"/>
          <g>
            <path class="cls-53" d="m81.59,93.4l-.24-17.56-.24-30.2c0-.29.16-.53.37-.53h0c.2,0,.37.24.37.53l-.13,30.2-.13,17.56Z"/>
            <path class="cls-56" d="m81.28,26.97l.22,5.53.22,9.5c0,.09-.15.17-.33.17h0c-.18,0-.33-.07-.33-.17l.11-9.5.11-5.53Z"/>
            <g>
              <path class="cls-50" d="m84.8,39.96c0,1.89-1.33,4.19-2.98,5.14-1.65.95-2.98.19-2.98-1.7s1.33-4.19,2.98-5.14c1.65-.95,2.98-.19,2.98,1.7Z"/>
              <path class="cls-16" d="m80.49,46.01c-1.3,0-2.14-1.02-2.14-2.61,0-2.08,1.42-4.53,3.23-5.58.55-.32,1.08-.48,1.59-.48,1.3,0,2.14,1.02,2.14,2.61,0,2.08-1.42,4.53-3.23,5.57-.55.32-1.08.48-1.59.48Zm2.67-7.66c-.32,0-.7.12-1.09.34-1.48.86-2.73,3.01-2.73,4.71,0,1.01.43,1.61,1.14,1.61.32,0,.7-.12,1.09-.34,1.48-.86,2.73-3.01,2.73-4.71,0-1.01-.43-1.61-1.14-1.61Z"/>
            </g>
          </g>
          <g>
            <path class="cls-54" d="m3.1,83.04c0,.98-.17,1.82-.52,2.5-.34.69-.87,1.23-1.56,1.63-.26.15-.45.24-.57.27v-.67c.18-.04.35-.12.53-.22.47-.27.82-.62,1.06-1.05.23-.43.36-.96.38-1.59l-.04.02c-.12.27-.26.5-.42.69-.17.19-.36.34-.58.47-.39.22-.69.26-.91.11-.22-.15-.33-.46-.33-.94,0-.52.13-1.01.38-1.47.25-.46.6-.81,1.04-1.07.31-.18.58-.25.81-.21.23.04.41.19.53.45.12.26.19.62.19,1.08Zm-1.52-.65c-.24.14-.43.34-.56.59-.13.26-.19.55-.19.88,0,.28.06.47.18.57.12.09.3.07.55-.07.24-.14.43-.33.6-.59.16-.25.24-.49.24-.71,0-.2-.03-.37-.1-.51-.07-.14-.16-.22-.29-.25-.12-.03-.26,0-.42.09Z"/>
            <path class="cls-52" d="m6.74,81.31c0,.87-.12,1.58-.36,2.14-.24.56-.62.99-1.12,1.28-.48.28-.85.27-1.1-.02-.25-.29-.37-.86-.37-1.7,0-.88.12-1.6.36-2.16.24-.56.61-.98,1.11-1.27.49-.28.86-.27,1.11.02s.37.86.37,1.71Zm-2.25,1.3c0,.68.06,1.13.18,1.35.12.22.32.25.58.1.27-.15.46-.42.59-.78.12-.37.19-.89.19-1.56s-.06-1.12-.19-1.35c-.12-.23-.32-.26-.59-.11-.27.16-.46.41-.58.78-.12.36-.18.89-.18,1.57Z"/>
            <path class="cls-55" d="m1.62,90.23c.41-.24.74-.32.98-.24.24.08.36.3.36.66,0,.51-.27,1.08-.8,1.69.34,0,.58.07.73.2.14.13.22.33.22.6,0,.41-.13.82-.4,1.22-.26.4-.62.73-1.07.99-.47.27-.84.37-1.1.29-.26-.08-.39-.34-.39-.76,0-.28.07-.57.2-.87.14-.3.36-.63.67-.98-.27-.03-.46-.11-.57-.25-.11-.14-.17-.33-.17-.58,0-.36.12-.72.37-1.08.25-.36.57-.65.97-.88Zm-.81,4.23c0,.24.07.38.22.43.15.05.34,0,.59-.14.26-.15.45-.33.6-.55.14-.22.21-.44.21-.68,0-.18-.07-.31-.2-.39-.13-.08-.33-.1-.6-.08h-.09c-.26.29-.45.54-.57.77-.12.23-.17.44-.17.65Zm.8-3.61c-.2.11-.36.26-.48.45-.12.18-.18.37-.18.57,0,.12.02.21.07.28.04.07.11.12.19.14.08.03.22.04.42.03.24-.26.41-.48.5-.67.1-.19.15-.37.15-.55,0-.19-.06-.31-.18-.35-.12-.04-.29,0-.49.11Z"/>
            <path class="cls-57" d="m6.74,89.84c0,.87-.12,1.58-.36,2.14-.24.56-.62.99-1.12,1.28-.48.28-.85.27-1.1-.02-.25-.29-.37-.86-.37-1.7,0-.88.12-1.6.36-2.16.24-.56.61-.98,1.11-1.27.49-.28.86-.27,1.11.02s.37.86.37,1.71Zm-2.25,1.3c0,.68.06,1.13.18,1.35.12.22.32.25.58.1.27-.15.46-.42.59-.78.12-.37.19-.89.19-1.56s-.06-1.12-.19-1.35c-.12-.23-.32-.26-.59-.11-.27.16-.46.41-.58.78-.12.36-.18.89-.18,1.57Z"/>
            <path class="cls-51" d="m1.63,110.33c.44-.25.79-.32,1.04-.2.26.12.38.41.38.87,0,.53-.15,1.03-.44,1.5-.29.47-.7.86-1.24,1.17-.49.28-.87.41-1.15.39v-.73c.16.01.35-.01.55-.08.21-.06.4-.15.58-.25.32-.18.56-.4.72-.66.16-.26.25-.54.25-.85,0-.6-.33-.7-1-.32-.09.05-.21.13-.34.23-.14.1-.26.19-.36.28l-.31-.03.17-2.54,2.26-1.31v.71l-1.65.95-.1,1.3c.07-.05.15-.12.25-.2.1-.08.22-.16.37-.24Z"/>
            <path class="cls-62" d="m6.74,108.01c0,.87-.12,1.58-.36,2.14-.24.56-.62.99-1.12,1.28-.48.28-.85.27-1.1-.02-.25-.29-.37-.86-.37-1.7,0-.88.12-1.6.36-2.16.24-.56.61-.98,1.11-1.27.49-.28.86-.27,1.11.02s.37.86.37,1.71Zm-2.25,1.3c0,.68.06,1.13.18,1.35.12.22.32.25.58.1.27-.15.46-.42.59-.78.12-.37.19-.89.19-1.56s-.06-1.12-.19-1.35c-.12-.23-.32-.26-.59-.11-.27.16-.46.41-.58.78-.12.36-.18.89-.18,1.57Z"/>
            <path class="cls-59" d="m3.26,119.96l-.59.34v1.09l-.68.39v-1.09l-1.99,1.15v-.62l1.99-4.45.68-.39v3.25l.59-.34v.67Zm-1.27.07v-1.25c0-.45.01-.82.03-1.11h-.02c-.06.2-.14.43-.26.71l-1.08,2.43,1.34-.77Z"/>
            <path class="cls-63" d="m6.74,116.54c0,.87-.12,1.58-.36,2.14-.24.56-.62.99-1.12,1.28-.48.28-.85.27-1.1-.02-.25-.29-.37-.86-.37-1.7,0-.88.12-1.6.36-2.16.24-.56.61-.98,1.11-1.27.49-.28.86-.27,1.11.02.25.29.37.86.37,1.71Zm-2.25,1.3c0,.68.06,1.13.18,1.35.12.22.32.25.58.1.27-.15.46-.42.59-.78.12-.37.19-.89.19-1.56s-.06-1.12-.19-1.35c-.12-.23-.32-.26-.59-.11-.27.16-.46.41-.58.78-.12.36-.18.89-.18,1.57Z"/>
            <path class="cls-64" d="m3.1,134.77l-2.95,1.7v-.61l1.12-1.94c.33-.58.55-.98.66-1.21.11-.23.19-.42.24-.6.05-.17.08-.34.08-.5,0-.22-.06-.37-.18-.43-.12-.06-.28-.03-.49.09-.17.1-.33.22-.48.39-.16.16-.34.39-.54.7l-.38-.31c.24-.37.48-.68.71-.91.23-.23.47-.42.73-.57.41-.23.73-.3.97-.2.24.1.37.36.37.77,0,.23-.04.46-.11.7-.07.24-.18.52-.33.81-.15.3-.39.73-.73,1.29l-.76,1.28v.04l2.07-1.19v.71Z"/>
            <path class="cls-65" d="m6.74,130.17c0,.87-.12,1.58-.36,2.14-.24.56-.62.99-1.12,1.28-.48.28-.85.27-1.1-.02-.25-.29-.37-.86-.37-1.7,0-.88.12-1.6.36-2.16.24-.56.61-.98,1.11-1.27.49-.28.86-.27,1.11.02.25.29.37.86.37,1.71Zm-2.25,1.3c0,.68.06,1.13.18,1.35.12.22.32.25.58.1.27-.15.46-.42.59-.78.12-.37.19-.89.19-1.56s-.06-1.12-.19-1.35c-.12-.23-.32-.26-.59-.11-.27.16-.46.41-.58.78-.12.36-.18.89-.18,1.57Z"/>
          </g>
          <g>
            <path class="cls-17" d="m68.09,57.48c0,.98-.69,2.17-1.54,2.66s-1.54.1-1.54-.88.69-2.17,1.54-2.66c.85-.49,1.54-.1,1.54.88Z"/>
            <path class="cls-58" d="m65.85,60.71c-.72,0-1.2-.58-1.2-1.44,0-1.11.75-2.41,1.72-2.96.3-.17.59-.26.87-.26.72,0,1.2.58,1.2,1.44,0,1.11-.75,2.41-1.72,2.96-.3.17-.59.26-.87.26Z"/>
          </g>
          <g>
            <path class="cls-18" d="m99.09,61.73c0,.98-.69,2.17-1.54,2.66s-1.54.1-1.54-.88.69-2.17,1.54-2.66c.85-.49,1.54-.1,1.54.88Z"/>
            <path class="cls-69" d="m96.85,64.96c-.72,0-1.2-.58-1.2-1.44,0-1.11.75-2.41,1.72-2.96.3-.17.59-.26.87-.26.72,0,1.2.58,1.2,1.44,0,1.11-.75,2.41-1.72,2.96-.3.17-.59.26-.87.26Z"/>
          </g>
          <g>
            <path class="cls-18" d="m114.09,65.61c0,.98-.69,2.17-1.54,2.66s-1.54.1-1.54-.88.69-2.17,1.54-2.66c.85-.49,1.54-.1,1.54.88Z"/>
            <path class="cls-61" d="m111.85,68.83c-.72,0-1.2-.58-1.2-1.44,0-1.11.75-2.41,1.72-2.96.3-.17.59-.26.87-.26.72,0,1.2.58,1.2,1.44,0,1.11-.75,2.41-1.72,2.96-.3.17-.59.26-.87.26Z"/>
          </g>
          <g>
            <path class="cls-22" d="m52.84,84.48c0,.98-.69,2.17-1.54,2.66s-1.54.1-1.54-.88.69-2.17,1.54-2.66c.85-.49,1.54-.1,1.54.88Z"/>
            <path class="cls-60" d="m50.6,87.71c-.72,0-1.2-.58-1.2-1.44,0-1.11.75-2.41,1.72-2.96.3-.17.59-.26.87-.26.72,0,1.2.58,1.2,1.44,0,1.11-.75,2.41-1.72,2.96-.3.17-.59.26-.87.26Z"/>
          </g>
          <g>
            <path class="cls-25" d="m37.71,100.61c0,.98-.69,2.17-1.54,2.66s-1.54.1-1.54-.88.69-2.17,1.54-2.66c.85-.49,1.54-.1,1.54.88Z"/>
            <path class="cls-70" d="m35.48,103.83c-.72,0-1.2-.58-1.2-1.44,0-1.11.75-2.41,1.72-2.96.3-.17.59-.26.87-.26.72,0,1.2.58,1.2,1.44,0,1.11-.75,2.41-1.72,2.96-.3.17-.59.26-.87.26Z"/>
          </g>
          <g>
            <path class="cls-23" d="m22.21,123.61c0,.98-.69,2.17-1.54,2.66s-1.54.1-1.54-.88.69-2.17,1.54-2.66c.85-.49,1.54-.1,1.54.88Z"/>
            <path class="cls-66" d="m19.98,126.83c-.72,0-1.2-.58-1.2-1.44,0-1.11.75-2.41,1.72-2.96.3-.17.59-.26.87-.26.72,0,1.2.58,1.2,1.44,0,1.11-.75,2.41-1.72,2.96-.3.17-.59.26-.87.26Z"/>
          </g>
        </g>
      </g>
    </g>
  </g>
</svg>