<?xml version="1.0" encoding="UTF-8"?>
<svg id="_Слой_2" data-name="Слой 2" xmlns="http://www.w3.org/2000/svg" xmlns:xlink="http://www.w3.org/1999/xlink" viewBox="0 0 362.67 359.12">
  <defs>
    <style>
      .cls-1 {
        opacity: .3;
      }

      .cls-1, .cls-2, .cls-3, .cls-4 {
        fill: none;
      }

      .cls-2, .cls-5 {
        opacity: .5;
      }

      .cls-6 {
        fill: #f0f6ff;
      }

      .cls-7 {
        fill: #fff;
      }

      .cls-8 {
        fill: #fcd1c5;
      }

      .cls-9 {
        fill: #936d6d;
      }

      .cls-10 {
        fill: #aa8383;
      }

      .cls-11 {
        fill: #c4ccd6;
      }

      .cls-12 {
        fill: #e2b1a6;
      }

      .cls-13 {
        fill: #24126a;
      }

      .cls-14 {
        fill: #22227c;
      }

      .cls-15 {
        fill: #160a5b;
      }

      .cls-16 {
        fill: #0f054c;
      }

      .cls-17, .cls-5, .cls-18, .cls-19, .cls-20 {
        fill: #413ece;
      }

      .cls-21 {
        fill: #453c9e;
      }

      .cls-22, .cls-23, .cls-24 {
        fill: #53a5f8;
      }

      .cls-25 {
        fill: url(#_Безымянный_градиент_64);
      }

      .cls-26 {
        fill: url(#_Безымянный_градиент_71);
      }

      .cls-27 {
        fill: url(#_Ѕезым_нный_градиент_209-10);
      }

      .cls-3 {
        opacity: .11;
      }

      .cls-28 {
        fill: url(#_Безымянный_градиент_8-4);
      }

      .cls-29 {
        fill: url(#_Безымянный_градиент_8-3);
      }

      .cls-30 {
        fill: url(#_Безымянный_градиент_8-2);
      }

      .cls-31 {
        fill: url(#_Безымянный_градиент_8-7);
      }

      .cls-32 {
        fill: url(#_Безымянный_градиент_8-5);
      }

      .cls-33 {
        fill: url(#_Безымянный_градиент_8-6);
      }

      .cls-34 {
        fill: url(#_Ѕезым_нный_градиент_254-2);
      }

      .cls-34, .cls-35, .cls-36, .cls-37 {
        opacity: .5;
      }

      .cls-35 {
        fill: url(#_Ѕезым_нный_градиент_254-3);
      }

      .cls-4 {
        stroke: #53a5f8;
        stroke-miterlimit: 10;
      }

      .cls-36 {
        fill: url(#_Ѕезым_нный_градиент_254);
      }

      .cls-38 {
        fill: url(#_Ѕезым_нный_градиент_209);
      }

      .cls-39 {
        fill: url(#_Безымянный_градиент_8);
      }

      .cls-40 {
        opacity: .68;
      }

      .cls-40, .cls-41 {
        fill: #7575e0;
      }

      .cls-23 {
        opacity: .56;
      }

      .cls-37 {
        fill: #42e8e0;
      }

      .cls-18 {
        opacity: .88;
      }

      .cls-19 {
        opacity: .75;
      }

      .cls-41 {
        opacity: .78;
      }

      .cls-42 {
        fill: url(#_Ѕезым_нный_градиент_209-4);
      }

      .cls-43 {
        fill: url(#_Ѕезым_нный_градиент_209-3);
      }

      .cls-44 {
        fill: url(#_Ѕезым_нный_градиент_209-2);
      }

      .cls-45 {
        fill: url(#_Ѕезым_нный_градиент_209-8);
      }

      .cls-46 {
        fill: url(#_Ѕезым_нный_градиент_209-5);
      }

      .cls-47 {
        fill: url(#_Ѕезым_нный_градиент_209-7);
      }

      .cls-48 {
        fill: url(#_Ѕезым_нный_градиент_209-6);
      }

      .cls-49 {
        fill: url(#_Ѕезым_нный_градиент_209-9);
      }

      .cls-24 {
        opacity: .35;
      }

      .cls-20 {
        opacity: .97;
      }
    </style>
    <linearGradient id="_Ѕезым_нный_градиент_209" data-name="Ѕезым€нный градиент 209" x1="0" y1="233.17" x2="104.72" y2="233.17" gradientUnits="userSpaceOnUse">
      <stop offset="0" stop-color="#5761d7"/>
      <stop offset=".07" stop-color="#5471d8"/>
      <stop offset=".28" stop-color="#4d9bda"/>
      <stop offset=".48" stop-color="#48bddd"/>
      <stop offset=".67" stop-color="#44d4de"/>
      <stop offset=".85" stop-color="#42e3df"/>
      <stop offset="1" stop-color="#42e8e0"/>
    </linearGradient>
    <linearGradient id="_Безымянный_градиент_8" data-name="Безымянный градиент 8" x1="0" y1="233.17" x2="104.72" y2="233.17" gradientUnits="userSpaceOnUse">
      <stop offset="0" stop-color="#8ce2fe"/>
      <stop offset="1" stop-color="#8ce2fe"/>
    </linearGradient>
    <linearGradient id="_Ѕезым_нный_градиент_209-2" data-name="Ѕезым€нный градиент 209" x1="257.95" x2="362.67" xlink:href="#_Ѕезым_нный_градиент_209"/>
    <linearGradient id="_Безымянный_градиент_8-2" data-name="Безымянный градиент 8" x1="257.95" x2="362.67" xlink:href="#_Безымянный_градиент_8"/>
    <linearGradient id="_Безымянный_градиент_8-3" data-name="Безымянный градиент 8" x1="106.16" y1="182.68" x2="259.45" y2="182.68" xlink:href="#_Безымянный_градиент_8"/>
    <linearGradient id="_Безымянный_градиент_8-4" data-name="Безымянный градиент 8" x1="97.75" y1="218.28" x2="144.24" y2="218.28" xlink:href="#_Безымянный_градиент_8"/>
    <linearGradient id="_Безымянный_градиент_8-5" data-name="Безымянный градиент 8" x1="221.53" y1="218.21" x2="267.75" y2="218.21" xlink:href="#_Безымянный_градиент_8"/>
    <linearGradient id="_Безымянный_градиент_8-6" data-name="Безымянный градиент 8" x1="106.34" y1="152.33" x2="258.89" y2="152.33" xlink:href="#_Безымянный_градиент_8"/>
    <linearGradient id="_Ѕезым_нный_градиент_254" data-name="Ѕезым€нный градиент 254" x1="123.95" y1="152.34" x2="241.28" y2="152.34" gradientUnits="userSpaceOnUse">
      <stop offset="0" stop-color="#42e8e0"/>
      <stop offset=".15" stop-color="#42e3df"/>
      <stop offset=".33" stop-color="#44d4de"/>
      <stop offset=".52" stop-color="#48bddd"/>
      <stop offset=".72" stop-color="#4d9bda"/>
      <stop offset=".93" stop-color="#5471d8"/>
      <stop offset="1" stop-color="#5761d7"/>
    </linearGradient>
    <linearGradient id="_Ѕезым_нный_градиент_254-2" data-name="Ѕезым€нный градиент 254" x1="182.62" y1="131.14" y2="131.14" xlink:href="#_Ѕезым_нный_градиент_254"/>
    <linearGradient id="_Ѕезым_нный_градиент_254-3" data-name="Ѕезым€нный градиент 254" y1="131.14" x2="182.62" y2="131.14" xlink:href="#_Ѕезым_нный_градиент_254"/>
    <linearGradient id="_Ѕезым_нный_градиент_209-3" data-name="Ѕезым€нный градиент 209" x1="-2636.99" y1="321.15" x2="-2503.04" y2="321.15" gradientTransform="translate(-2388) rotate(-180) scale(1 -1)" xlink:href="#_Ѕезым_нный_градиент_209"/>
    <linearGradient id="_Ѕезым_нный_градиент_209-4" data-name="Ѕезым€нный градиент 209" x1="-2636.99" y1="310.85" x2="-2503.04" y2="310.85" gradientTransform="translate(-2388) rotate(-180) scale(1 -1)" xlink:href="#_Ѕезым_нный_градиент_209"/>
    <linearGradient id="_Ѕезым_нный_градиент_209-5" data-name="Ѕезым€нный градиент 209" x1="-2636.99" y1="300.55" x2="-2503.04" y2="300.55" gradientTransform="translate(-2388) rotate(-180) scale(1 -1)" xlink:href="#_Ѕезым_нный_градиент_209"/>
    <linearGradient id="_Ѕезым_нный_градиент_209-6" data-name="Ѕезым€нный градиент 209" x1="-2636.99" y1="290.24" x2="-2503.04" y2="290.24" gradientTransform="translate(-2388) rotate(-180) scale(1 -1)" xlink:href="#_Ѕезым_нный_градиент_209"/>
    <linearGradient id="_Ѕезым_нный_градиент_209-7" data-name="Ѕезым€нный градиент 209" x1="-2644.21" y1="277.43" x2="-2496.52" y2="277.43" gradientTransform="translate(-2388) rotate(-180) scale(1 -1)" xlink:href="#_Ѕезым_нный_градиент_209"/>
    <linearGradient id="_Ѕезым_нный_градиент_209-8" data-name="Ѕезым€нный градиент 209" x1="-2644.21" y1="266.07" x2="-2496.52" y2="266.07" gradientTransform="translate(-2388) rotate(-180) scale(1 -1)" xlink:href="#_Ѕезым_нный_градиент_209"/>
    <linearGradient id="_Ѕезым_нный_градиент_209-9" data-name="Ѕезым€нный градиент 209" x1="-2644.21" y1="254.71" x2="-2496.52" y2="254.71" gradientTransform="translate(-2388) rotate(-180) scale(1 -1)" xlink:href="#_Ѕезым_нный_градиент_209"/>
    <linearGradient id="_Ѕезым_нный_градиент_209-10" data-name="Ѕезым€нный градиент 209" x1="-2644.21" y1="243.35" x2="-2496.52" y2="243.35" gradientTransform="translate(-2388) rotate(-180) scale(1 -1)" xlink:href="#_Ѕезым_нный_градиент_209"/>
    <linearGradient id="_Безымянный_градиент_8-7" data-name="Безымянный градиент 8" x1="-2644.21" y1="243.35" x2="-2496.52" y2="243.35" gradientTransform="translate(-2388) rotate(-180) scale(1 -1)" xlink:href="#_Безымянный_градиент_8"/>
    <linearGradient id="_Безымянный_градиент_64" data-name="Безымянный градиент 64" x1="193.49" y1="138.72" x2="234.48" y2="194.83" gradientUnits="userSpaceOnUse">
      <stop offset="0" stop-color="#413ece"/>
      <stop offset=".04" stop-color="#3e3bc7"/>
      <stop offset=".31" stop-color="#3230a6"/>
      <stop offset=".56" stop-color="#29288f"/>
      <stop offset=".8" stop-color="#232380"/>
      <stop offset="1" stop-color="#22227c"/>
    </linearGradient>
    <linearGradient id="_Безымянный_градиент_71" data-name="Безымянный градиент 71" x1="144.6" y1="101.91" x2="236.38" y2="172.36" gradientUnits="userSpaceOnUse">
      <stop offset="0" stop-color="#413ece"/>
      <stop offset=".34" stop-color="#3735b5"/>
      <stop offset="1" stop-color="#22227c"/>
    </linearGradient>
  </defs>
  <g id="_лой_1" data-name="—лой_1">
    <g>
      <g>
        <g class="cls-1">
          <path class="cls-17" d="m56.41,228.73c-2.48-1.43-5.54-1.43-8.02,0L.56,256.27c-.75.43-.75,1.52,0,1.96l48.22,27.84c2.19,1.26,4.89,1.26,7.08,0l48.29-27.81c.75-.43.75-1.52,0-1.96l-47.75-27.57Z"/>
        </g>
        <g class="cls-3">
          <path class="cls-38" d="m56.41,204.56c-2.48-1.43-5.54-1.43-8.02,0L.56,232.1c-.75.43-.75,1.52,0,1.96l48.22,27.84c2.19,1.26,4.89,1.26,7.08,0l48.29-27.81c.75-.43.75-1.52,0-1.96l-47.75-27.57Z"/>
        </g>
        <path class="cls-22" d="m104.16,232.13l-47.75-27.57c-2.48-1.43-5.54-1.43-8.02,0L.56,232.1c-.38.22-.56.6-.56.98v16.2c0,.38.19.76.56.98l48.22,27.84c2.19,1.26,4.89,1.26,7.08,0l48.29-27.81c.38-.22.56-.6.56-.98v-16.2h0c0-.38-.19-.76-.56-.98Z"/>
        <path class="cls-39" d="m56.41,204.56c-2.48-1.43-5.54-1.43-8.02,0L.56,232.1c-.75.43-.75,1.52,0,1.96l48.22,27.84c2.19,1.26,4.89,1.26,7.08,0l48.29-27.81c.75-.43.75-1.52,0-1.96l-47.75-27.57Z"/>
        <path class="cls-4" d="m55.5,208.9c-1.93-1.11-4.3-1.11-6.23,0l-39.25,22.61c-.62.36-.62,1.24,0,1.6l39.41,22.75c1.79,1.03,4,1.03,5.79,0l39.47-22.73c.62-.36.62-1.24,0-1.6l-39.19-22.63Z"/>
        <path class="cls-7" d="m104.16,232.97l-48.29,27.81c-2.19,1.26-4.89,1.26-7.08,0L.56,232.95c-.19-.11-.32-.25-.42-.42-.29.51-.15,1.21.42,1.53l48.22,27.84c2.19,1.26,4.89,1.26,7.08,0l48.29-27.81c.57-.33.71-1.02.42-1.53-.09.17-.23.31-.42.42Z"/>
      </g>
      <g>
        <g class="cls-1">
          <path class="cls-17" d="m314.35,228.73c-2.48-1.43-5.54-1.43-8.02,0l-47.82,27.54c-.75.43-.75,1.52,0,1.96l48.22,27.84c2.19,1.26,4.89,1.26,7.08,0l48.29-27.81c.75-.43.75-1.52,0-1.96l-47.75-27.57Z"/>
        </g>
        <g class="cls-3">
          <path class="cls-44" d="m314.35,204.56c-2.48-1.43-5.54-1.43-8.02,0l-47.82,27.54c-.75.43-.75,1.52,0,1.96l48.22,27.84c2.19,1.26,4.89,1.26,7.08,0l48.29-27.81c.75-.43.75-1.52,0-1.96l-47.75-27.57Z"/>
        </g>
        <path class="cls-22" d="m362.1,232.13l-47.75-27.57c-2.48-1.43-5.54-1.43-8.02,0l-47.82,27.54c-.38.22-.56.6-.56.98v16.2c0,.38.19.76.56.98l48.22,27.84c2.19,1.26,4.89,1.26,7.08,0l48.29-27.81c.38-.22.56-.6.56-.98v-16.2h0c0-.38-.19-.76-.56-.98Z"/>
        <path class="cls-30" d="m314.35,204.56c-2.48-1.43-5.54-1.43-8.02,0l-47.82,27.54c-.75.43-.75,1.52,0,1.96l48.22,27.84c2.19,1.26,4.89,1.26,7.08,0l48.29-27.81c.75-.43.75-1.52,0-1.96l-47.75-27.57Z"/>
        <path class="cls-4" d="m313.45,208.9c-1.93-1.11-4.3-1.11-6.23,0l-39.25,22.61c-.62.36-.62,1.24,0,1.6l39.41,22.75c1.79,1.03,4,1.03,5.79,0l39.47-22.73c.62-.36.62-1.24,0-1.6l-39.19-22.63Z"/>
        <path class="cls-7" d="m362.1,232.97l-48.29,27.81c-2.19,1.26-4.89,1.26-7.08,0l-48.22-27.84c-.19-.11-.32-.25-.42-.42-.29.51-.15,1.21.42,1.53l48.22,27.84c2.19,1.26,4.89,1.26,7.08,0l48.29-27.81c.57-.33.71-1.02.42-1.53-.09.17-.23.31-.42.42Z"/>
      </g>
      <path class="cls-29" d="m182.61,227.17c-1.19,0-2.33-.25-3.19-.75l-71.82-41.47c-.93-.54-1.44-1.3-1.44-2.16,0-.99.7-1.96,1.92-2.67l70.86-40.91c2.17-1.25,5.35-1.37,7.25-.28l71.82,41.47c.93.54,1.44,1.3,1.44,2.16,0,.99-.7,1.96-1.92,2.67l-70.86,40.91c-1.18.68-2.65,1.02-4.06,1.02Zm-2.64-1.71c1.54.89,4.35.76,6.14-.28l70.86-40.91c.85-.49,1.36-1.13,1.36-1.7,0-.57-.48-.97-.88-1.2l-71.82-41.47c-1.53-.88-4.35-.76-6.14.28l-70.86,40.91c-.85.49-1.36,1.13-1.36,1.7,0,.57.48.97.88,1.2l71.82,41.47Z"/>
      <path class="cls-28" d="m98.31,231.94c-.19,0-.38-.1-.48-.28-.15-.27-.06-.61.2-.76l45.37-26.19c.26-.15.61-.06.76.2.15.27.06.61-.2.76l-45.37,26.19c-.09.05-.18.08-.28.08Z"/>
      <path class="cls-32" d="m267.2,231.79c-.1,0-.19-.02-.28-.08l-45.12-26.05c-.27-.15-.36-.49-.2-.76.15-.27.5-.36.76-.2l45.11,26.05c.27.15.36.49.2.76-.1.18-.29.28-.48.28Z"/>
      <g>
        <g>
          <polygon class="cls-22" points="258.89 152.33 258.89 161.15 182.62 205.18 106.34 161.15 106.34 152.33 258.89 152.33"/>
          <polygon class="cls-33" points="182.62 196.37 106.34 152.33 182.62 108.3 258.89 152.33 182.62 196.37"/>
          <polygon class="cls-7" points="182.62 195.34 107.24 151.82 106.34 152.33 182.62 196.37 258.89 152.33 258 151.82 182.62 195.34"/>
        </g>
        <g>
          <polygon class="cls-16" points="182.62 186.21 123.95 152.34 182.62 118.47 241.28 152.34 182.62 186.21"/>
          <g>
            <polygon class="cls-36" points="182.62 186.21 123.95 152.34 182.62 118.47 241.28 152.34 182.62 186.21"/>
            <g>
              <polygon class="cls-34" points="182.62 109.93 241.28 143.8 241.28 152.34 182.62 118.47 182.62 109.93"/>
              <polygon class="cls-35" points="182.62 118.47 123.95 152.34 123.95 143.8 182.62 109.93 182.62 118.47"/>
              <polygon class="cls-5" points="182.62 177.67 123.95 143.8 182.62 109.93 241.28 143.8 182.62 177.67"/>
              <polygon class="cls-37" points="182.62 157.34 159.18 143.8 182.62 130.27 206.06 143.8 182.62 157.34"/>
              <polygon class="cls-7" points="182.62 131.51 204.98 144.42 206.06 143.8 182.62 130.27 159.18 143.8 160.25 144.42 182.62 131.51"/>
              <polygon class="cls-5" points="182.62 177.67 182.62 186.21 241.28 152.34 241.28 143.8 182.62 177.67"/>
            </g>
            <polygon class="cls-5" points="123.95 143.8 123.95 152.34 182.62 186.21 182.62 177.67 123.95 143.8"/>
          </g>
          <polygon class="cls-7" points="182.62 176.74 124.76 143.34 123.95 143.8 182.62 177.67 241.28 143.8 240.48 143.34 182.62 176.74"/>
        </g>
      </g>
      <g class="cls-2">
        <path class="cls-5" d="m349.19,136.8v-35.43c-.82-12.08-5.6-23.59-13.62-34.11v35.43c8.02,10.52,12.8,22.03,13.62,34.11h0Zm-17.72-39.09v-35.43c-2.83-3.19-5.96-6.27-9.38-9.24v35.43c3.42,2.97,6.55,6.05,9.38,9.24h0Zm-15.19-13.97v-35.43c-3.72-2.84-7.71-5.56-11.96-8.14v35.43c4.24,2.58,8.24,5.3,11.96,8.14h0Zm-19.98-2.23V25.15c32.64,17.32,53.02,42.09,53.02,69.49v56.38c0-27.4-20.38-52.17-53.02-69.49h0Z"/>
        <path class="cls-5" d="m236.6,54.46v-10.18c-2.49-.48-5.01-.92-7.55-1.33v10.18c2.54.41,5.06.85,7.55,1.33h0Zm-13.58-12.41v-9.01c-2.58-.36-5.19-.68-7.81-.96v9.01c2.63.29,5.23.61,7.81.96h0Zm26.66,5.1v-12.28c-2.39-.59-4.81-1.15-7.26-1.68v12.28c2.45.53,4.87,1.09,7.26,1.68h0Zm-40.71-6.67v-18.13c-2.66-.23-5.34-.42-8.04-.58v18.13c2.7.16,5.38.35,8.04.58h0Zm-29.17-1.02v-18.13c-2.73.04-5.45.12-8.15.24v18.13c2.7-.12,5.42-.2,8.15-.24h0Zm-14.49.58v-22.81c-2.67.18-5.32.39-7.96.64v22.81c2.63-.25,5.29-.46,7.96-.64h0Zm29.22-.44V13.51c-2.44-.09-4.9-.14-7.37-.17-.29,0-.58,0-.88,0v26.09c.29,0,.58,0,.88,0,2.47.02,4.93.08,7.37.17h0Zm-43.35,1.72V8.69c-2.6.3-5.18.64-7.74,1.02v32.64c2.56-.37,5.14-.71,7.74-1.02h0ZM126.81,5.89C145.58,1.9,165.93-.2,187.15.01c28.33.28,54.87,4.65,77.95,12.09v56.38c-23.08-7.45-49.62-11.81-77.95-12.09-21.22-.21-41.58,1.88-60.34,5.88V5.89h0Z"/>
        <path class="cls-5" d="m30.9,82.36v-11.35c-3.37,4.85-6.07,9.91-8.01,15.12v33.62c1.95-5.22,4.64-10.27,8.01-15.12v-11.35c.98-1.41,2.01-2.8,3.1-4.17v6.12c2.07-2.6,4.33-5.14,6.78-7.61v-6.12c10.63-10.7,24.8-20.09,41.57-27.65v-10.92c-2.98,1.35-5.88,2.75-8.7,4.21-1.41.73-2.79,1.47-4.16,2.23-10.77,5.98-20.12,12.79-27.75,20.26-.32.32-.64.63-.96.95v-6.12c-2.45,2.47-4.72,5-6.78,7.61v6.12c-1.09,1.37-2.12,2.76-3.1,4.17h0Zm-10.21-.36c6.41-27.51,33.36-51.2,71.59-65.95v56.38c-38.23,14.75-65.18,38.44-71.59,65.95v-56.38h0Z"/>
        <path class="cls-19" d="m40.78,70.59c.32-.32.64-.64.96-.95v10.92c5.7-5.58,12.36-10.79,19.85-15.57,2.54-1.62,5.17-3.18,7.9-4.69v-10.92c1.36-.76,2.75-1.5,4.16-2.23v10.92c2.81-1.46,5.71-2.86,8.7-4.21v-10.92,10.92c-16.77,7.56-30.93,16.95-41.57,27.65v-10.92h0Zm-9.88,11.77c.98-1.41,2.01-2.8,3.1-4.17v10.92c-1.09,1.37-2.12,2.76-3.1,4.17v-10.92h0Z"/>
        <path class="cls-18" d="m73.65,47.15c2.81-1.46,5.71-2.86,8.7-4.21v10.92c-2.98,1.35-5.88,2.75-8.7,4.21v-10.92h0Z"/>
        <path class="cls-18" d="m41.74,69.64c5.7-5.58,12.36-10.79,19.85-15.57v10.92c-7.49,4.77-14.16,9.99-19.85,15.57v-10.92h0Z"/>
        <path class="cls-20" d="m61.59,54.07c2.54-1.62,5.17-3.18,7.9-4.69v10.92c-2.72,1.51-5.36,3.08-7.9,4.69v-10.92h0Z"/>
        <path class="cls-19" d="m22.89,86.14c1.95-5.22,4.64-10.27,8.01-15.12v11.35c-3.37,4.85-6.07,9.91-8.01,15.12v10.92c1.95-5.22,4.64-10.27,8.01-15.12v11.35c-3.37,4.85-6.07,9.91-8.01,15.12v-33.62h0Z"/>
        <path class="cls-18" d="m22.89,97.49c1.95-5.22,4.64-10.27,8.01-15.12v10.92c-3.37,4.85-6.07,9.91-8.01,15.12v-10.92h0Z"/>
        <path class="cls-19" d="m34,89.11c2.07-2.6,4.33-5.14,6.78-7.61v6.12c-2.45,2.47-4.72,5-6.78,7.61v-6.12h0Zm0-17.04c2.07-2.6,4.33-5.14,6.78-7.61v6.12c-2.45,2.47-4.72,5-6.78,7.61v-6.12h0Z"/>
        <path class="cls-18" d="m34,78.19c2.07-2.6,4.33-5.14,6.78-7.61v10.92c-2.45,2.47-4.72,5-6.78,7.61v-10.92h0Z"/>
        <path class="cls-19" d="m335.57,67.26c8.02,10.52,12.8,22.03,13.62,34.11v35.43c-.82-12.08-5.6-23.59-13.62-34.11v-35.43h0Z"/>
        <path class="cls-17" d="m322.09,53.04c3.42,2.97,6.55,6.05,9.38,9.24v35.43c-2.83-3.19-5.96-6.27-9.38-9.24v-35.43h0Z"/>
        <path class="cls-19" d="m304.33,40.18c4.24,2.58,8.24,5.3,11.96,8.14v35.43c-3.72-2.84-7.71-5.56-11.96-8.14v-35.43h0Z"/>
        <path class="cls-19" d="m242.42,33.18c2.45.53,4.87,1.09,7.26,1.68v12.28c-2.39-.59-4.81-1.15-7.26-1.68v-12.28h0Z"/>
        <path class="cls-19" d="m229.05,42.95c2.54.41,5.06.85,7.55,1.33v10.18c-2.49-.48-5.01-.92-7.55-1.33v-10.18h0Z"/>
        <path class="cls-19" d="m215.2,32.07c2.63.29,5.23.61,7.81.96v9.01c-2.58-.36-5.19-.68-7.81-.96v-9.01h0Z"/>
        <path class="cls-19" d="m200.93,21.76c2.7.16,5.38.35,8.04.58v18.13c-2.66-.23-5.34-.42-8.04-.58v-18.13h0Z"/>
        <path class="cls-19" d="m186.28,13.34c.29,0,.58,0,.88,0,2.47.02,4.93.08,7.37.17v26.09c-2.44-.09-4.9-.14-7.37-.17-.29,0-.58,0-.88,0V13.34h0Z"/>
        <path class="cls-17" d="m171.64,21.56c2.7-.12,5.42-.2,8.15-.24v18.13c-2.73.04-5.45.12-8.15.24v-18.13h0Z"/>
        <path class="cls-19" d="m157.34,17.86c2.63-.25,5.29-.46,7.96-.64v22.81c-2.67.18-5.32.39-7.96.64v-22.81h0Z"/>
        <path class="cls-17" d="m143.43,9.7c2.56-.37,5.14-.71,7.74-1.02v32.64c-2.6.3-5.18.64-7.74,1.02V9.7h0Z"/>
      </g>
      <g>
        <g class="cls-3">
          <path class="cls-43" d="m176.84,284.57c3.17-1.83,7.09-1.84,10.26,0l61.17,35.23c.96.56.96,1.95,0,2.5l-61.68,35.61c-2.8,1.62-6.25,1.62-9.06,0l-61.77-35.58c-.96-.56-.96-1.95,0-2.5l61.08-35.26Z"/>
        </g>
        <g class="cls-3">
          <path class="cls-42" d="m176.84,274.26c3.17-1.83,7.09-1.84,10.26,0l61.17,35.23c.96.56.96,1.95,0,2.5l-61.68,35.61c-2.8,1.62-6.25,1.62-9.06,0l-61.77-35.58c-.96-.56-.96-1.95,0-2.5l61.08-35.26Z"/>
        </g>
        <g class="cls-3">
          <path class="cls-46" d="m176.84,263.96c3.17-1.83,7.09-1.84,10.26,0l61.17,35.23c.96.56.96,1.95,0,2.5l-61.68,35.61c-2.8,1.62-6.25,1.62-9.06,0l-61.77-35.58c-.96-.56-.96-1.95,0-2.5l61.08-35.26Z"/>
        </g>
        <g class="cls-3">
          <path class="cls-48" d="m176.84,253.65c3.17-1.83,7.09-1.84,10.26,0l61.17,35.23c.96.56.96,1.95,0,2.5l-61.68,35.61c-2.8,1.62-6.25,1.62-9.06,0l-61.77-35.58c-.96-.56-.96-1.95,0-2.5l61.08-35.26Z"/>
        </g>
        <path class="cls-5" d="m115.76,288.92l61.08-35.26c3.17-1.83,7.09-1.84,10.26,0l61.17,35.23c.48.28.72.76.72,1.25v30.91c0,.49-.24.97-.72,1.25l-61.68,35.61c-2.8,1.62-6.25,1.62-9.06,0l-61.77-35.58c-.48-.28-.72-.76-.72-1.25v-30.91h0c0-.49.24-.97.72-1.25Z"/>
      </g>
      <g>
        <g class="cls-3">
          <path class="cls-47" d="m176.66,237.09c3.5-2.02,7.81-2.02,11.32,0l67.44,38.85c1.06.61,1.06,2.15,0,2.76l-68,39.26c-3.09,1.78-6.9,1.78-9.99,0l-68.11-39.23c-1.06-.61-1.06-2.15,0-2.76l67.34-38.88Z"/>
        </g>
        <g class="cls-3">
          <path class="cls-45" d="m176.66,225.73c3.5-2.02,7.81-2.02,11.32,0l67.44,38.85c1.06.61,1.06,2.15,0,2.76l-68,39.26c-3.09,1.78-6.9,1.78-9.99,0l-68.11-39.23c-1.06-.61-1.06-2.15,0-2.76l67.34-38.88Z"/>
        </g>
        <g class="cls-3">
          <path class="cls-49" d="m176.66,214.37c3.5-2.02,7.81-2.02,11.32,0l67.44,38.85c1.06.61,1.06,2.15,0,2.76l-68,39.26c-3.09,1.78-6.9,1.78-9.99,0l-68.11-39.23c-1.06-.61-1.06-2.15,0-2.76l67.34-38.88Z"/>
        </g>
        <g class="cls-3">
          <path class="cls-27" d="m176.66,203.01c3.5-2.02,7.81-2.02,11.32,0l67.44,38.85c1.06.61,1.06,2.15,0,2.76l-68,39.26c-3.09,1.78-6.9,1.78-9.99,0l-68.11-39.23c-1.06-.61-1.06-2.15,0-2.76l67.34-38.88Z"/>
        </g>
        <path class="cls-22" d="m109.32,241.89l67.34-38.88c3.5-2.02,7.81-2.02,11.32,0l67.44,38.85c.53.31.8.84.8,1.38v34.08c0,.54-.27,1.07-.8,1.38l-68,39.26c-3.09,1.78-6.9,1.78-9.99,0l-68.11-39.23c-.53-.31-.8-.84-.8-1.38v-34.08h0c0-.54.27-1.07.8-1.38Z"/>
        <path class="cls-31" d="m176.66,203.01c3.5-2.02,7.81-2.02,11.32,0l67.44,38.85c1.06.61,1.06,2.15,0,2.76l-68,39.26c-3.09,1.78-6.9,1.78-9.99,0l-68.11-39.23c-1.06-.61-1.06-2.15,0-2.76l67.34-38.88Z"/>
        <path class="cls-7" d="m109.32,243.08l68.11,39.23c3.09,1.78,6.9,1.78,9.99,0l68-39.26c.26-.15.46-.36.59-.59.41.72.21,1.7-.59,2.16l-68,39.26c-3.09,1.78-6.9,1.78-9.99,0l-68.11-39.23c-.8-.46-1-1.44-.59-2.16.13.24.33.44.59.59Z"/>
      </g>
      <ellipse class="cls-23" cx="182.37" cy="243.35" rx="37.13" ry="21.44"/>
      <g>
        <path class="cls-15" d="m196.5,225.17s.9.94,1.84,2.05c.94,1.11,3.57,2.65,4.68,3.34,1.11.69,6.17,4.53,7.23,8.31,1.06,3.78-2.56,4.28-6.27,3.63s-7.17-4.07-8.17-5.31c-1.01-1.23-4.51-4.03-9.06-6.39-4.55-2.35-1.8-5.52-1.8-5.52l11.55-.11Z"/>
        <path class="cls-15" d="m162.75,236.41s-.75,1.7-.96,3.89c-.21,2.19-.52,6.93-.63,8.32-.11,1.39-.16,4.78,2.28,8.03,2.44,3.25,3.7,4.53,6.95,3.26s3.17-6.73,2.6-9.53c-.57-2.8-1.11-9.07-1.05-9.73.06-.66-.19-1.08-.19-1.08l-9-3.16Z"/>
        <path class="cls-13" d="m207.7,160.91s-.68,24.98-6.5,38.24c0,0-4.17,11.68-4.72,25.57,0,0,.96,2.39-.4,4.34-1.37,1.94-9.91,3.72-11.32-2.66-1.41-6.39-.87-18.34.68-23.32,1.55-4.98-.55-18.72-.55-18.72,0,0-2.34,1.49-5.4,11.36-3.06,9.87-5.31,13.63-6.37,16.36-1.05,2.73-2.02,19.45-1.35,27.62,0,0-6.92.98-8.92-2.33-2-3.31-2.67-20.42-2.16-25.88.51-5.46,2.79-22.94,2.48-28.34-.31-5.41-1.44-9.8-.2-15.2,1.24-5.4,37.76-17.4,37.76-17.4l7,10.38Z"/>
        <path class="cls-15" d="m163.15,183.13c-.31-5.41-1.44-9.8-.2-15.2.47-2.03,5.92-4.99,12.54-7.9,11.18-1.02,25.35-2.2,26.33-2.06.88.13,3.19,1.01,5.11,1.78l.78,1.16s-.04,1.52-.19,4c-2.61.78-7.62-.03-7.62-.03-.71,1.75-5.06,7.98-10.48,10.67s-21.27,1.77-22.18,2.79c-.91,1.02-1.09,14.7-.99,16.44.1,1.74-1.49,12.69-2.97,22.36-1.45,9.52.76,21.1.83,21.47-.51-.33-.96-.73-1.27-1.25-2-3.31-2.67-20.42-2.16-25.88.51-5.46,2.79-22.94,2.48-28.34Z"/>
        <path class="cls-25" d="m195.48,79.21s8.1,1.85,10.83,2.49c.45.11.82.42.99.86.79,1.99,2.76,8.18,1.27,17.22-1.83,11.11-1.25,18.58-1.25,18.58l3.75,19.5s4.71,18.58,4.3,19.08c-.41.51-10.85,8.45-14.11,7.34-3.26-1.12-2.19-2.97-2.19-2.97,0,0-2.64,13.46-14.35,13.33-11.7-.13-21.26-.09-23.25-4.82-1.99-4.73.54-24.61,2.61-32.49,2.06-7.87,6.97-23.57,6.97-23.57l-17.14-18.97,14.65-11.19s3.5-6.5,4.94-7.33c1.44-.83,2.19-.13,2.19-.13l19.79,3.05Z"/>
        <g>
          <path class="cls-40" d="m201.06,159.99c-.01.68.38,1.68,2.49,2.4,2.27.78,7.84-2.6,11.49-5.15-1.82,1.52-10.79,8.06-13.78,7.04-.65-.22-1.12-.47-1.47-.73.67-1.5,1.07-2.79,1.27-3.56Z"/>
          <path class="cls-41" d="m161.56,168.25c2.1,4.99,12.18,4.95,24.53,5.09,3.14.03,5.66-.86,7.68-2.21-2.14,2.04-5.07,3.57-9.05,3.52-11.7-.13-21.26-.09-23.25-4.82-.65-1.55-.82-4.74-.67-8.6-.03,3.13.19,5.67.76,7.02Z"/>
        </g>
        <path class="cls-6" d="m173.81,76.12s-2.99,3.62,1.31,8.51c2.65,3.01,7.21,9.49,11.09,16.23,2.43,4.21,4.67,6.45,5.94,10.07,0,0,.18-4.29.35-10.93.16-6.26.25-12.76-.03-14.4-.58-3.37-15.36-11.12-18.66-9.48Z"/>
        <path class="cls-8" d="m185,87.01s1.53.95,2.06.87c.53-.08,2.23-1.73,2.23-1.73,0,0,4.25-.08,4.71-1.9.46-1.82.77-3.65,1.2-4.6.43-.95,2.26-5.49,2.28-7.33.01-1.84-.06-5.13.74-6.88.8-1.74,1.87-19.18-14.97-18.68s-11.61,17.97-11.61,17.97c0,0-1.23.52-.49,2.77.74,2.25.91,2.48,1.29,3.6.38,1.12.57,1.83,1.64,2.74l.28,2.07s-.8,3.17,1.29,6.24c2.09,3.08,9.34,4.84,9.34,4.84Z"/>
        <path class="cls-14" d="m206.77,81.9s1.79.27,7.62,14.92c3.25,8.18,8.27,16.64,9.33,22.72,1.06,6.08.47,12.57-.73,13.03-1.16.44-22.08,8.27-28.63,10.74-.36.14-.76-.09-.82-.47l-1.81-10.11,12.99-5.02s2.47-3.02,4.8-4.16c0,0-2.6-4.8-2.44-6.11.17-1.31-.23-14.86,1.29-20.38,1.52-5.52-1.59-15.17-1.59-15.17Z"/>
        <path class="cls-8" d="m199.16,120.62s1.79-1.2,2.23-1.37c.44-.17,2.83-.99,3.29-1.19.34-.15,1.73-.04,2.43.03.25.03.47.17.59.4.55,1.03,2.09,4.01,1.92,5.15,0,0-4.32,2.73-4.81,3.95l-.69.15s-2.9-6.21-4.97-7.11Z"/>
        <path class="cls-14" d="m164.08,137.34c.5-1.89,1.16-4.24,1.88-6.71l26.3,11.27s-7.87,9.68-21.67,9.06c-3.77-.17-6.52-1.53-8.55-2.7.61-4.3,1.35-8.28,2.04-10.92Z"/>
        <path class="cls-13" d="m153.91,94.8s6.94.95,12.54,9.84c5.6,8.88,9.69,19.16,9.69,19.16l.19,1.16c.5,3.02,3.72,4.75,6.52,3.5,5.92-2.64,14.68-6.64,16.31-7.84,0,0,5.24,2.9,6.67,9.74,1.14,5.46.85,5.47.85,5.47,0,0-23.35,10.9-32.37,10.79-9.02-.11-20.46-29.76-21.72-35.89-1.26-6.13-2.65-14.21,1.32-15.94Z"/>
        <path class="cls-26" d="m153.91,94.8s6.94.95,12.54,9.84c5.6,8.88,9.69,19.16,9.69,19.16l.19,1.16c.5,3.02,3.72,4.75,6.52,3.5,5.92-2.64,14.68-6.64,16.31-7.84,0,0,5.24,2.9,6.67,9.74,1.14,5.46.85,5.47.85,5.47,0,0-23.35,10.9-32.37,10.79-9.02-.11-20.46-29.76-21.72-35.89-1.26-6.13-2.65-14.21,1.32-15.94Z"/>
        <path class="cls-21" d="m179.49,129.84s-2.95,2.75-4.23,1.25c-1.28-1.51-.9-1.68-.9-1.68,0,0-2.65-.02-2.97-1.68-.32-1.66-1.63-.78-1.7-2.63-.07-1.85,2.15-1.47,2.15-1.47l7.66,6.22Z"/>
        <path class="cls-8" d="m183.05,128.36s-.81-.75-1.86-1.64c-1.04-.88-2.73-4.54-3.02-4.86-.29-.32-3.81-3.03-5.51-3.07-1.7-.05-.44,1.85-.05,2.12.39.27,2.05,1.09,2.05,1.09,0,0,1.71,1.43,1.9,1.64.19.21-4.74-.34-5.53.14-.78.48-.6,1.74-.05,2.09.55.34.98.33.98.33,0,0-.56,1.49.93,2.18,1.48.69,1.82.31,1.82.31,0,0,.13,2.57,2.57,2.06l5.76-2.38Z"/>
        <path class="cls-10" d="m198.6,56.55s2.2,7-3.59,5.01c-5.78-1.99-11.02-5.32-12.83-4.05-1.38.97-1.32,3.93-1.21,5.28.04.46-.08.92-.35,1.3l-1.71,2.49c-.19.28-.31.61-.33.95l-.12,1.73c-.03.44-.38.78-.82.81l-.39.02c-.44.03-.83-.28-.91-.72l-.45-2.55s-1.36-3.43-4.24-2.08c0,0-1.92-2.59-1.28-8.11.64-5.53,3.12-11.28,13.97-12.2,10.85-.92,14.27,12.11,14.27,12.11Z"/>
        <path class="cls-11" d="m182.02,93.17l1.62-1.26s1.5,1.25,2.09,2.57c.59,1.32,0,5.53,0,5.53l.49.85.61-1.11.51-4.97s-.55-3.67-.61-3.77c-.05-.09-3.13.33-3.13.33,0,0-1.07.81-1.59,1.84Z"/>
        <path class="cls-11" d="m189.82,88.22s1.73.12,2.52.76c0,0-1.82.09-2.11.12-.29.03-.41-.89-.41-.89Z"/>
        <path class="cls-13" d="m186.52,88.61l-2.91,2.72s2.56,1.18,3.27,3.46c0,0,3.17.59,3.46-.56.29-1.15,0-4.04.37-5.32.38-1.28-4.18-.31-4.18-.31Z"/>
        <path class="cls-13" d="m190.21,94.17s.54,2.38,1.13,3.37c.59.98,1.2,2.09,1.2,2.09l-.07,13.97s-5.14-10.59-6.25-12.73c0,0,.17-5.1.66-6.07.49-.96,3.34-.62,3.34-.62Z"/>
        <path class="cls-12" d="m176.42,73.53c3.37,9.74,12.87,12.63,12.87,12.63,0,0-1.7,1.65-2.23,1.73-.53.08-2.06-.87-2.06-.87,0,0-7.25-1.76-9.34-4.84-2.09-3.08-1.29-6.24-1.29-6.24l-.28-2.07c1.51.49,2.33-.33,2.33-.33Z"/>
        <path class="cls-14" d="m168.7,84.93s1.33,4.6,1.5,4.77,3.35-.19,3.35-.19l-1.54,2.92s15.98,17.14,19.3,26.36c0,0-7.56-11.69-20.87-25.64l1.88-2.85-3.27.64-.35-6Z"/>
        <path class="cls-14" d="m194.95,80.87l.85.97-1,.93,2.96,2.67s.9,18.75-2.71,31.17c0,0,4.9-11.39,3.79-31.68l-3.2-2.17,1.05-1.03-1.74-.86Z"/>
        <path class="cls-15" d="m184.88,184.34s-.04.02-.11.09l4.14-4.41c-1.91,2.7.29,15.04.52,17.86.23,2.83-2.21,8.66-3.12,15.5-.91,6.83.96,16.57.96,16.6-1.18-.69-2.13-1.83-2.52-3.6-1.41-6.39-.87-18.34.68-23.32,1.55-4.98-.55-18.72-.55-18.72Z"/>
        <path class="cls-24" d="m174.31,146.63c-9.02-.11-20.46-29.76-21.72-35.89-.21-1.02-.42-2.1-.61-3.19.03.09,2.37,6.49,4.62,12.17,2.27,5.72,14.32,23.04,20.48,24.17,5.55,1.02,25.53-8.31,29.4-10.15.35,2.08.2,2.1.2,2.1,0,0-23.35,10.9-32.37,10.79Z"/>
        <path class="cls-9" d="m177.24,70.09c-.44.03-.83-.28-.91-.72l-.45-2.55s-1.36-3.43-4.24-2.08c0,0-1.81-2.46-1.32-7.68,3.2,4.8,10.3,7.02,10.3,7.02l-1.71,2.49c-.19.28-.31.61-.33.95l-.12,1.73c-.03.44-.38.78-.82.81l-.39.02Z"/>
      </g>
      <g>
        <path class="cls-5" d="m71.63,211.87v-9.53c1.91,1.02,3.86,2.02,5.85,2.99v9.53c-1.99-.97-3.94-1.97-5.85-2.99h0Zm-18.76-11.9v-17.55c1.59,1.19,3.22,2.37,4.9,3.52v17.55c-1.68-1.15-3.31-2.32-4.9-3.52h0Zm8.94,6.18v-20.7c1.75,1.11,3.55,2.2,5.39,3.26v20.7c-1.84-1.06-3.64-2.15-5.39-3.26h0Zm-23.99-19.77v-22.97c1.22,1.34,2.49,2.66,3.81,3.96v22.97c-1.32-1.3-2.6-2.62-3.81-3.96h0Zm7.03,6.99v-24.89c1.41,1.27,2.87,2.52,4.37,3.75v24.89c-1.51-1.23-2.97-2.48-4.37-3.75h0Zm-17.93-22.02v-26.98c.81,1.46,1.68,2.91,2.61,4.34v26.98c-.93-1.43-1.8-2.88-2.61-4.34h0Zm4.9,7.67v-35.1c1.02,1.4,2.09,2.79,3.23,4.16v35.1c-1.13-1.37-2.21-2.76-3.23-4.16h0Zm-8.64-15.63v-39.64c.59,1.51,1.24,3.01,1.95,4.49v39.64c-.71-1.48-1.37-2.98-1.95-4.5h0Zm66.33,8.8c-37.72-15.19-63.77-39.2-69.23-66.7v56.38c5.46,27.5,31.52,51.5,69.23,66.7v-56.38h0Z"/>
        <path class="cls-5" d="m200.11,234.81v-12.72c6.49-.35,12.87-.92,19.12-1.7v12.72c-6.25.77-12.63,1.34-19.12,1.7h0Zm-30.5.06v-23.18c3.89.2,7.82.32,11.78.36,2.71.03,5.4.02,8.08-.03v23.18c-2.68.05-5.37.06-8.08.03-3.96-.04-7.89-.16-11.78-.36h0Zm-29.4-3.04v-35.43c6.15.97,12.44,1.75,18.86,2.31v35.43c-6.42-.56-12.71-1.34-18.86-2.31h0Zm89.06-.15v-37.42c6.1-.99,12.06-2.18,17.86-3.55v37.42c-5.8,1.37-11.76,2.56-17.86,3.55h0Zm32.9-53.54c-24.03,7.39-51.59,11.47-80.79,11.18-20.35-.2-39.78-2.51-57.66-6.56v56.38c17.88,4.05,37.31,6.35,57.66,6.56,29.2.29,56.76-3.78,80.79-11.18v-56.38h0Z"/>
        <path class="cls-5" d="m302.68,194.27v-10.92c26.31-15.53,43.43-36.25,46.23-59.29v10.92c-2.8,23.04-19.93,43.75-46.23,59.29h0Zm46.61-41.57v-56.38c-.84,27.57-22.15,52.19-55.48,69.16v56.38c33.33-16.97,54.64-41.59,55.48-69.16h0Z"/>
        <path class="cls-19" d="m348.91,124.06c-2.8,23.04-19.93,43.75-46.23,59.29v10.92c26.31-15.53,43.43-36.25,46.23-59.29v-10.92h0Z"/>
        <path class="cls-17" d="m159.08,198.71c-6.42-.56-12.71-1.34-18.86-2.31v35.43c6.15.97,12.44,1.75,18.86,2.31v-35.43h0Z"/>
        <path class="cls-17" d="m219.23,220.4c-6.25.77-12.63,1.34-19.12,1.7v12.72c6.49-.35,12.87-.92,19.12-1.7v-12.72h0Z"/>
        <path class="cls-17" d="m247.14,190.71c-5.8,1.37-11.76,2.56-17.86,3.55v37.42c6.1-.99,12.06-2.18,17.86-3.55v-37.42h0Z"/>
        <path class="cls-19" d="m189.47,212.02c-2.68.05-5.37.06-8.08.03-3.96-.04-7.89-.16-11.78-.36v23.18c3.89.2,7.82.32,11.78.36,2.71.03,5.4.02,8.08-.03v-23.18h0Z"/>
        <path class="cls-17" d="m25.14,128.25c-.71-1.48-1.37-2.98-1.95-4.49v39.64c.59,1.51,1.24,3.01,1.95,4.49v-39.64h0Z"/>
        <path class="cls-17" d="m29.54,148.71c-.93-1.43-1.8-2.88-2.61-4.34v26.98c.81,1.46,1.68,2.91,2.61,4.34v-26.98h0Z"/>
        <path class="cls-19" d="m35.06,148.09c-1.13-1.37-2.21-2.76-3.23-4.16v35.1c1.02,1.4,2.09,2.79,3.23,4.16v-35.1h0Z"/>
        <path class="cls-17" d="m41.64,167.37c-1.32-1.3-2.6-2.62-3.81-3.96v22.97c1.22,1.34,2.49,2.66,3.81,3.96v-22.97h0Z"/>
        <path class="cls-19" d="m49.23,172.23c-1.51-1.23-2.97-2.48-4.37-3.75v24.89c1.41,1.27,2.87,2.52,4.37,3.75v-24.89h0Z"/>
        <path class="cls-19" d="m57.77,185.93c-1.68-1.15-3.31-2.32-4.9-3.52v17.55c1.59,1.19,3.22,2.37,4.9,3.52v-17.55h0Z"/>
        <path class="cls-19" d="m67.21,188.71c-1.84-1.06-3.64-2.15-5.39-3.26v20.7c1.75,1.11,3.55,2.2,5.39,3.26v-20.7h0Z"/>
        <path class="cls-19" d="m77.49,205.34c-1.99-.97-3.94-1.97-5.85-2.99v9.53c1.91,1.02,3.86,2.02,5.85,2.99v-9.53h0Z"/>
      </g>
    </g>
  </g>
</svg>