<svg width="21" height="14" viewBox="0 0 21 14" fill="none" xmlns="http://www.w3.org/2000/svg">
  <path d="M20 1.5C20.2761 1.5 20.5 1.27614 20.5 1C20.5 0.723858 20.2761 0.5 20 0.5V1.5ZM0 1.5H20V0.5H0V1.5Z"
    fill="white" />
  <path
    d="M20 7.33398C20.2761 7.33398 20.5 7.11013 20.5 6.83398C20.5 6.55784 20.2761 6.33398 20 6.33398V7.33398ZM0 7.33398H20V6.33398H0V7.33398Z"
    fill="white" />
  <path
    d="M20 13.166C20.2761 13.166 20.5 12.9422 20.5 12.666C20.5 12.3899 20.2761 12.166 20 12.166V13.166ZM0 13.166H20V12.166H0V13.166Z"
    fill="white" />
</svg>